<svg width="1290" height="457" viewBox="0 0 1290 457" fill="none" xmlns="http://www.w3.org/2000/svg">
<path fill-rule="evenodd" clip-rule="evenodd" d="M1097.4 8.61257e-05L1097.21 14.2784C1097.21 14.2784 1054.14 15.7109 928.674 15.7109C836.941 15.7109 790.75 15.8657 790.75 16.173C790.75 16.4798 762.184 16.6351 705.702 16.6351C649.22 16.6351 620.654 16.4798 620.654 16.173C620.654 15.8671 603.396 15.7109 569.528 15.7109C535.716 15.7109 518.402 15.8671 518.402 16.1721C518.402 16.478 485.211 16.673 419.964 16.7497L321.526 16.8661L321.364 55.2051L321.202 93.5437L319.092 95.0126C317.931 95.8208 316.486 96.6216 315.88 96.793C315.274 96.964 314.583 97.3822 314.344 97.7218C314.106 98.0615 313.324 98.4806 312.606 98.6534C311.888 98.8257 311.301 99.1289 311.301 99.3267C311.301 99.5244 310.388 100.149 309.272 100.714C308.156 101.279 306.649 102.139 305.923 102.625C305.198 103.11 304.358 103.507 304.057 103.507C303.756 103.507 303.51 103.715 303.51 103.969C303.51 104.223 303.284 104.431 303.008 104.431C302.731 104.431 301.901 104.847 301.161 105.355C300.422 105.863 299.631 106.279 299.402 106.279C299.173 106.279 298.465 106.695 297.83 107.203C297.194 107.712 296.386 108.127 296.035 108.127C295.683 108.127 295.395 108.335 295.395 108.59C295.395 108.844 295.174 109.052 294.904 109.052C294.634 109.052 294.159 109.235 293.849 109.46C293.539 109.684 292.92 110.079 292.474 110.338C292.027 110.596 290.97 111.245 290.124 111.778C289.277 112.312 288.365 112.748 288.095 112.748C287.825 112.748 287.604 112.956 287.604 113.21C287.604 113.465 287.321 113.672 286.974 113.672C286.628 113.672 286.254 113.88 286.144 114.135C286.033 114.389 285.587 114.597 285.151 114.597C284.715 114.597 284.358 114.805 284.358 115.059C284.358 115.313 283.993 115.521 283.547 115.521C283.1 115.521 282.735 115.729 282.735 115.983C282.735 116.237 282.37 116.445 281.924 116.445C281.477 116.445 281.112 116.653 281.112 116.907C281.112 117.161 280.829 117.369 280.482 117.369C280.135 117.369 279.762 117.577 279.651 117.831C279.541 118.085 279.094 118.293 278.659 118.293C278.223 118.293 277.866 118.501 277.866 118.755C277.866 119.01 277.574 119.217 277.217 119.217C276.86 119.217 276.568 119.425 276.568 119.68C276.568 119.934 276.129 120.142 275.594 120.142C275.058 120.142 274.62 120.35 274.62 120.604C274.62 120.858 274.328 121.066 273.971 121.066C273.614 121.066 273.322 121.274 273.322 121.528C273.322 121.782 272.965 121.99 272.529 121.99C272.093 121.99 271.647 122.198 271.536 122.452C271.426 122.706 271.052 122.914 270.706 122.914C270.359 122.914 270.076 123.122 270.076 123.376C270.076 123.63 269.719 123.838 269.283 123.838C268.847 123.838 268.401 124.046 268.29 124.3C268.18 124.555 267.806 124.762 267.459 124.762C267.113 124.762 266.829 124.97 266.829 125.225C266.829 125.479 266.546 125.687 266.199 125.687C265.853 125.687 265.479 125.895 265.369 126.149C265.258 126.403 264.812 126.611 264.376 126.611C263.94 126.611 263.583 126.819 263.583 127.073C263.583 127.327 263.3 127.535 262.953 127.535C262.607 127.535 262.233 127.743 262.123 127.997C262.012 128.251 261.565 128.459 261.13 128.459C260.694 128.459 260.337 128.667 260.337 128.921C260.337 129.175 260.116 129.383 259.846 129.383C259.576 129.383 259.101 129.567 258.791 129.791C258.055 130.325 256.027 131.528 253.926 132.68C252.507 133.457 251.404 134.117 250.847 134.52C250.537 134.745 250.062 134.928 249.792 134.928C249.522 134.928 249.3 135.136 249.3 135.39C249.3 135.645 249.036 135.852 248.712 135.852C248.389 135.852 247.519 136.268 246.78 136.777C246.041 137.285 245.21 137.701 244.934 137.701C244.658 137.701 244.431 137.909 244.431 138.163C244.431 138.417 244.205 138.625 243.929 138.625C243.652 138.625 242.822 139.041 242.082 139.549C241.343 140.057 240.618 140.473 240.471 140.473C240.325 140.473 239.585 140.858 238.828 141.329C238.072 141.8 236.649 142.662 235.667 143.245C234.685 143.828 233.421 144.587 232.859 144.931C232.296 145.275 231.635 145.556 231.389 145.556C231.143 145.556 230.654 145.824 230.302 146.152C229.95 146.479 228.201 147.55 226.415 148.531C224.63 149.511 222.575 150.699 221.849 151.17C221.124 151.64 220.39 152.025 220.218 152.025C220.047 152.025 219.034 152.643 217.967 153.397C216.901 154.151 215.699 154.775 215.298 154.784C214.896 154.791 214.567 154.964 214.567 155.167C214.567 155.37 214.02 155.8 213.35 156.122C212.016 156.763 210.818 157.455 209.946 158.086C209.636 158.311 209.161 158.494 208.891 158.494C208.621 158.494 208.4 158.702 208.4 158.957C208.4 159.211 207.961 159.419 207.426 159.419C206.89 159.419 206.452 159.627 206.452 159.881C206.452 160.135 206.16 160.343 205.803 160.343C205.446 160.343 205.154 160.551 205.154 160.805C205.154 161.059 204.715 161.267 204.18 161.267C203.644 161.267 203.206 161.475 203.206 161.729C203.206 161.983 202.914 162.191 202.557 162.191C202.2 162.191 201.907 162.399 201.907 162.653C201.907 162.907 201.551 163.115 201.115 163.115C200.679 163.115 200.232 163.323 200.122 163.577C200.012 163.832 199.638 164.039 199.291 164.039C198.945 164.039 198.661 164.247 198.661 164.502C198.661 164.756 198.378 164.964 198.031 164.964C197.685 164.964 197.311 165.172 197.201 165.426C197.09 165.68 196.644 165.888 196.208 165.888C195.772 165.888 195.415 166.096 195.415 166.35C195.415 166.604 195.132 166.812 194.785 166.812C194.438 166.812 194.065 167.02 193.954 167.274C193.844 167.528 193.397 167.736 192.961 167.736C192.526 167.736 192.169 167.944 192.169 168.198C192.169 168.452 191.948 168.66 191.678 168.66C191.408 168.66 190.896 168.868 190.542 169.122C190.187 169.377 189.607 169.792 189.252 170.047C188.897 170.301 188.386 170.509 188.116 170.509C187.846 170.509 187.625 170.717 187.625 170.971C187.625 171.225 187.186 171.433 186.651 171.433C186.115 171.433 185.677 171.641 185.677 171.895C185.677 172.149 185.385 172.357 185.028 172.357C184.671 172.357 184.378 172.565 184.378 172.819C184.378 173.073 184.022 173.281 183.586 173.281C183.15 173.281 182.703 173.489 182.593 173.743C182.483 173.997 182.109 174.205 181.762 174.205C181.416 174.205 181.132 174.413 181.132 174.667C181.132 174.922 180.776 175.129 180.34 175.129C179.904 175.129 179.457 175.337 179.347 175.592C179.237 175.846 178.863 176.054 178.516 176.054C178.17 176.054 177.886 176.262 177.886 176.516C177.886 176.77 177.521 176.978 177.075 176.978C176.628 176.978 176.263 177.186 176.263 177.44C176.263 177.694 176.042 177.902 175.772 177.902C175.502 177.902 175.027 178.085 174.717 178.31C174.19 178.692 173.542 179.082 171.556 180.212C171.11 180.467 170.38 180.882 169.933 181.137C167.947 182.267 167.3 182.657 166.773 183.039C166.463 183.264 165.988 183.447 165.718 183.447C165.448 183.447 165.226 183.617 165.226 183.825C165.226 184.034 164.496 184.487 163.603 184.833C162.711 185.179 161.98 185.587 161.98 185.74C161.98 185.893 161.308 186.3 160.486 186.646C159.077 187.238 156.997 188.475 155.736 189.471C155.426 189.716 155.023 189.916 154.84 189.916C154.657 189.916 153.888 190.302 153.131 190.775C150.943 192.141 150.154 192.605 143.802 196.267C140.499 198.171 137.223 200.028 136.521 200.394C135.819 200.76 134.614 201.468 133.843 201.968C133.072 202.469 132.003 203.002 131.467 203.155C130.931 203.307 130.493 203.595 130.493 203.794C130.493 203.993 129.763 204.422 128.87 204.748C127.977 205.073 127.247 205.508 127.247 205.714C127.247 205.92 127.022 206.089 126.747 206.089C126.472 206.089 125.675 206.505 124.975 207.013C124.275 207.521 123.404 207.937 123.04 207.937C122.676 207.937 122.378 208.122 122.378 208.349C122.378 208.575 121.721 209.036 120.917 209.373C120.114 209.711 119.456 210.15 119.456 210.349C119.456 210.547 119.018 210.71 118.483 210.71C117.947 210.71 117.509 210.918 117.509 211.172C117.509 211.426 117.217 211.634 116.86 211.634C116.503 211.634 116.21 211.842 116.21 212.096C116.21 212.35 115.772 212.558 115.237 212.558C114.701 212.558 114.261 212.714 114.26 212.905C114.257 213.368 112.655 214.407 111.945 214.407C111.634 214.407 111.289 214.614 111.179 214.869C111.069 215.123 110.695 215.331 110.348 215.331C110.002 215.331 109.718 215.539 109.718 215.793C109.718 216.047 109.435 216.255 109.088 216.255C108.741 216.255 108.368 216.463 108.257 216.717C108.147 216.971 107.7 217.179 107.264 217.179C106.828 217.179 106.472 217.387 106.472 217.641C106.472 217.895 106.251 218.103 105.981 218.103C105.711 218.103 105.236 218.287 104.926 218.511C104.616 218.736 103.924 219.176 103.388 219.489C102.853 219.803 102.161 220.243 101.851 220.468C101.541 220.692 101.066 220.876 100.796 220.876C100.526 220.876 100.304 221.084 100.304 221.338C100.304 221.592 99.9481 221.8 99.5121 221.8C99.0762 221.8 98.6295 222.008 98.5191 222.262C98.4088 222.516 98.0351 222.724 97.6885 222.724C97.3418 222.724 97.0584 222.932 97.0584 223.186C97.0584 223.44 96.702 223.648 96.266 223.648C95.8301 223.648 95.3834 223.856 95.273 224.11C95.1627 224.364 94.789 224.572 94.4424 224.572C94.0957 224.572 93.8123 224.78 93.8123 225.034C93.8123 225.289 93.5289 225.497 93.1822 225.497C92.8355 225.497 92.4619 225.704 92.3515 225.959C92.2412 226.213 91.7945 226.421 91.3586 226.421C90.9226 226.421 90.5662 226.629 90.5662 226.883C90.5662 227.137 90.274 227.345 89.917 227.345C89.5599 227.345 89.2677 227.553 89.2677 227.807C89.2677 228.061 88.8295 228.269 88.2939 228.269C87.7583 228.269 87.3201 228.477 87.3201 228.731C87.3201 228.985 87.0279 229.193 86.6709 229.193C86.3138 229.193 86.0216 229.401 86.0216 229.655C86.0216 229.909 85.7275 230.117 85.3679 230.117C85.0085 230.117 84.4606 230.308 84.1506 230.542C82.7703 231.581 80.4676 232.89 80.0199 232.89C79.7502 232.89 79.5294 233.098 79.5294 233.352C79.5294 233.606 79.3084 233.814 79.038 233.814C78.7679 233.814 78.293 233.997 77.983 234.222C77.673 234.447 77.0543 234.835 76.6079 235.085C75.1845 235.881 73.8657 236.682 73.2852 237.103C72.9752 237.327 72.5718 237.511 72.389 237.511C72.2059 237.511 71.4372 237.904 70.6803 238.385C69.9236 238.866 69.0484 239.379 68.7362 239.525C68.2249 239.766 68.1681 240.574 68.1681 247.613C68.1681 254.318 68.0947 255.473 67.6546 255.713C67.3721 255.868 52.0343 255.994 33.5705 255.994H0L0 356.497L0 457H35.8694H71.7388V455.812C71.7388 454.59 72.3952 453.303 73.0184 453.303C73.3631 453.303 73.7576 453.069 75.2238 451.989C75.6231 451.695 76.171 451.455 76.4411 451.455C76.7115 451.455 76.9326 451.247 76.9326 450.993C76.9326 450.739 77.289 450.531 77.7249 450.531C78.1609 450.531 78.6076 450.323 78.7179 450.069C78.8283 449.815 79.2019 449.607 79.5486 449.607C79.8953 449.607 80.1787 449.399 80.1787 449.145C80.1787 448.89 80.5351 448.682 80.971 448.682C81.407 448.682 81.8537 448.475 81.964 448.22C82.0744 447.966 82.448 447.758 82.7947 447.758C83.1414 447.758 83.4248 447.55 83.4248 447.296C83.4248 447.042 83.7812 446.834 84.2171 446.834C84.6531 446.834 85.0998 446.626 85.2101 446.372C85.3205 446.118 85.6941 445.91 86.0408 445.91C86.3875 445.91 86.6709 445.702 86.6709 445.448C86.6709 445.194 86.965 444.986 87.3246 444.986C87.684 444.986 88.2319 444.802 88.5419 444.578C88.8519 444.353 89.5437 443.913 90.0793 443.6C90.6149 443.286 91.3066 442.846 91.6166 442.621C91.9266 442.397 92.4015 442.213 92.6716 442.213C92.942 442.213 93.1631 442.005 93.1631 441.751C93.1631 441.497 93.5195 441.289 93.9554 441.289C94.3914 441.289 94.838 441.081 94.9484 440.827C95.0588 440.573 95.4324 440.365 95.7791 440.365C96.1258 440.365 96.4092 440.157 96.4092 439.903C96.4092 439.649 96.7656 439.441 97.2015 439.441C97.6375 439.441 98.0841 439.233 98.1945 438.979C98.3049 438.725 98.6785 438.517 99.0252 438.517C99.3719 438.517 99.6553 438.309 99.6553 438.055C99.6553 437.8 99.9198 437.592 100.243 437.592C100.567 437.592 101.436 437.177 102.176 436.668C102.915 436.16 103.745 435.744 104.022 435.744C104.298 435.744 104.524 435.562 104.524 435.34C104.524 435.118 104.965 434.81 105.504 434.657C106.042 434.503 107.288 433.854 108.272 433.213C109.257 432.572 110.2 432.048 110.368 432.048C110.537 432.048 111.299 431.654 112.063 431.172C113.728 430.122 116.004 428.801 118.645 427.35C119.716 426.762 120.666 426.141 120.756 425.972C120.845 425.802 121.503 425.514 122.216 425.331C122.93 425.149 123.733 424.749 124.001 424.443C124.269 424.137 125.218 423.517 126.111 423.066C127.004 422.614 128.328 421.851 129.054 421.37C129.78 420.889 130.693 420.495 131.083 420.495C131.473 420.495 131.792 420.329 131.792 420.126C131.792 419.923 132.34 419.494 133.009 419.172C134.366 418.519 134.842 418.246 137.063 416.845C137.909 416.311 138.895 415.875 139.254 415.875C139.613 415.875 139.907 415.667 139.907 415.413C139.907 415.158 140.128 414.95 140.398 414.95C140.668 414.95 141.143 414.767 141.453 414.542C141.763 414.318 142.382 413.923 142.828 413.664C143.275 413.406 144.332 412.757 145.178 412.224C146.025 411.69 146.837 411.254 146.984 411.254C147.131 411.254 147.856 410.838 148.595 410.33C149.334 409.821 150.165 409.405 150.441 409.405C150.717 409.405 150.944 409.198 150.944 408.943C150.944 408.689 151.382 408.481 151.917 408.481C152.453 408.481 152.891 408.273 152.891 408.019C152.891 407.765 153.183 407.557 153.541 407.557C153.898 407.557 154.19 407.349 154.19 407.095C154.19 406.841 154.628 406.633 155.164 406.633C155.699 406.633 156.137 406.425 156.137 406.171C156.137 405.917 156.43 405.709 156.787 405.709C157.144 405.709 157.436 405.501 157.436 405.247C157.436 404.993 157.874 404.785 158.41 404.785C158.945 404.785 159.383 404.577 159.383 404.323C159.383 404.068 159.676 403.86 160.033 403.86C160.39 403.86 160.682 403.653 160.682 403.398C160.682 403.144 161.038 402.936 161.474 402.936C161.91 402.936 162.357 402.728 162.467 402.474C162.578 402.22 162.951 402.012 163.298 402.012C163.645 402.012 163.928 401.804 163.928 401.55C163.928 401.296 164.284 401.088 164.72 401.088C165.156 401.088 165.603 400.88 165.713 400.626C165.824 400.372 166.197 400.164 166.544 400.164C166.891 400.164 167.174 399.956 167.174 399.702C167.174 399.448 167.531 399.24 167.966 399.24C168.402 399.24 168.849 399.032 168.959 398.778C169.07 398.523 169.443 398.315 169.79 398.315C170.137 398.315 170.42 398.108 170.42 397.853C170.42 397.599 170.708 397.391 171.06 397.391C171.411 397.391 172.219 396.975 172.855 396.467C173.49 395.959 174.29 395.543 174.631 395.543C174.972 395.543 175.341 395.335 175.452 395.081C175.562 394.827 175.936 394.619 176.282 394.619C176.629 394.619 176.912 394.411 176.912 394.157C176.912 393.903 177.278 393.695 177.724 393.695C178.17 393.695 178.535 393.524 178.535 393.316C178.535 393.108 179.266 392.654 180.159 392.308C181.051 391.962 181.782 391.546 181.782 391.384C181.782 391.222 182.512 390.806 183.405 390.46C184.297 390.114 185.028 389.706 185.028 389.553C185.028 389.4 185.7 388.993 186.522 388.647C187.344 388.302 188.579 387.633 189.266 387.16C189.953 386.688 190.641 386.301 190.794 386.301C190.948 386.301 191.678 385.885 192.417 385.377C193.156 384.869 193.891 384.453 194.051 384.453C194.211 384.453 194.766 384.164 195.284 383.81C197.001 382.639 198.452 381.8 203.368 379.132C206.046 377.678 208.676 376.21 209.211 375.87C212.372 373.863 215.809 371.977 216.308 371.977C216.626 371.977 217.09 371.686 217.339 371.331C217.589 370.976 218.637 370.313 219.669 369.858C220.702 369.403 221.619 368.896 221.709 368.731C221.798 368.566 222.565 368.144 223.413 367.793C224.261 367.441 224.955 367.029 224.955 366.876C224.955 366.724 225.685 366.316 226.578 365.97C227.47 365.624 228.201 365.17 228.201 364.962C228.201 364.754 228.488 364.583 228.84 364.583C229.192 364.583 230 364.168 230.635 363.659C231.271 363.151 232.152 362.735 232.593 362.735C233.034 362.735 233.395 362.527 233.395 362.273C233.395 362.019 233.687 361.811 234.044 361.811C234.401 361.811 234.693 361.603 234.693 361.349C234.693 361.095 235.049 360.887 235.485 360.887C235.921 360.887 236.368 360.679 236.478 360.425C236.589 360.171 236.962 359.963 237.309 359.963C237.656 359.963 237.939 359.755 237.939 359.5C237.939 359.246 238.222 359.038 238.569 359.038C238.916 359.038 239.289 358.831 239.4 358.576C239.51 358.322 239.957 358.114 240.393 358.114C240.829 358.114 241.185 357.906 241.185 357.652C241.185 357.398 241.469 357.19 241.815 357.19C242.162 357.19 242.536 356.982 242.646 356.728C242.756 356.474 243.203 356.266 243.639 356.266C244.075 356.266 244.431 356.058 244.431 355.804C244.431 355.55 244.796 355.342 245.243 355.342C245.689 355.342 246.054 355.134 246.054 354.88C246.054 354.626 246.338 354.418 246.684 354.418C247.031 354.418 247.405 354.21 247.515 353.956C247.625 353.701 248.072 353.493 248.508 353.493C248.944 353.493 249.3 353.285 249.3 353.031C249.3 352.777 249.584 352.569 249.93 352.569C250.277 352.569 250.651 352.361 250.761 352.107C250.872 351.853 251.318 351.645 251.754 351.645C252.19 351.645 252.547 351.437 252.547 351.183C252.547 350.929 252.912 350.721 253.358 350.721C253.804 350.721 254.17 350.513 254.17 350.259C254.17 350.005 254.535 349.797 254.981 349.797C255.427 349.797 255.793 349.589 255.793 349.335C255.793 349.081 256.076 348.873 256.423 348.873C256.769 348.873 257.143 348.665 257.253 348.41C257.364 348.156 257.81 347.948 258.246 347.948C258.682 347.948 259.039 347.778 259.039 347.57C259.039 347.362 259.769 346.908 260.662 346.562C261.554 346.216 262.285 345.763 262.285 345.554C262.285 345.346 262.568 345.176 262.915 345.176C263.262 345.176 263.635 344.968 263.746 344.714C263.856 344.46 264.303 344.252 264.739 344.252C265.175 344.252 265.531 344.044 265.531 343.79C265.531 343.536 265.814 343.328 266.161 343.328C266.508 343.328 266.881 343.12 266.992 342.866C267.102 342.611 267.549 342.403 267.985 342.403C268.421 342.403 268.777 342.195 268.777 341.941C268.777 341.687 269.06 341.479 269.407 341.479C269.754 341.479 270.127 341.271 270.238 341.017C270.348 340.763 270.795 340.555 271.231 340.555C271.667 340.555 272.023 340.385 272.023 340.177C272.023 339.968 272.754 339.515 273.646 339.169C274.539 338.823 275.269 338.369 275.269 338.161C275.269 337.953 275.49 337.783 275.76 337.783C276.207 337.783 278.51 336.474 279.89 335.434C280.2 335.201 280.609 335.01 280.799 335.01C280.989 335.01 281.748 334.594 282.487 334.086C283.226 333.578 283.951 333.162 284.098 333.162C284.245 333.162 285.058 332.725 285.904 332.191C288.332 330.661 288.608 330.514 291.013 329.488C292.263 328.955 293.942 328.13 294.746 327.655C295.549 327.18 296.864 326.434 297.667 325.998C298.471 325.562 299.728 324.812 300.462 324.332C301.196 323.851 301.967 323.458 302.177 323.458C302.387 323.458 303.255 322.955 304.107 322.341C304.959 321.726 306.196 321.079 306.855 320.903C307.515 320.727 308.055 320.414 308.055 320.208C308.055 320.002 308.603 319.595 309.272 319.303C310.598 318.725 311.019 318.49 313.326 317.035C314.172 316.501 315.158 316.065 315.517 316.065C315.876 316.065 316.17 315.898 316.17 315.695C316.17 315.263 318.081 314.216 318.871 314.216C319.171 314.216 319.416 314.008 319.416 313.754C319.416 313.5 319.679 313.292 320.001 313.292C320.322 313.292 320.723 313.119 320.893 312.908C322.052 311.464 323.507 311.454 518.103 311.505C624.943 311.533 842.326 311.531 1001.18 311.5L1290 311.444V214.98C1290 119.016 1290 118.513 1289.35 117.938C1288.71 117.367 1288.7 116.861 1288.7 66.5363V15.7109H1249.75L1178.98 15.7108V7.85541V0L1138.89 8.61257e-05L1097.4 8.61257e-05ZM1176.71 15.7108V34.1942H1153.23L1151.09 36.3891C1149.92 37.5965 1148.3 39.2074 1147.49 39.9689C1146.69 40.7308 1145.96 41.4877 1145.87 41.6513C1145.78 41.8144 1144.72 42.8971 1143.5 44.0564C1141.67 45.7985 1141.16 46.0919 1140.52 45.7495C1139.86 45.3886 1136.59 42.2936 1136.13 41.5949C1136.05 41.4568 1135.1 40.515 1134.03 39.5017C1132.97 38.4888 1131.36 36.8808 1130.46 35.9289L1128.83 34.1984L1099.68 34.1961V17.7658V14.2784V3.69675H1138.89L1176.71 3.69666V15.7108ZM579.742 21.6875C580.258 23.0613 580.206 141.493 579.688 142.229C579.422 142.609 577.835 142.784 574.657 142.784H570.015V145.556V148.329H581.863H593.712V145.556V142.784H589.47C587.138 142.784 584.947 142.568 584.601 142.305C583.985 141.836 583.973 140.676 583.973 81.9704C583.973 30.711 584.04 22.0193 584.437 21.4541C584.826 20.9001 587.433 20.7938 600.648 20.7938H616.394L616.59 22.7577C616.697 23.838 616.742 46.347 616.691 72.7781L616.597 120.835L615.866 120.983C615.216 121.114 615.136 121.393 615.136 123.53C615.136 125.575 615.244 125.997 615.866 126.386C616.571 126.826 616.6 127.089 616.69 133.773C616.741 137.585 616.701 141.172 616.602 141.744C616.425 142.764 616.332 142.784 611.559 142.784H606.696V145.556V148.329H628.607C642.998 148.329 650.518 148.487 650.518 148.791C650.518 149.393 654.002 149.395 654.143 148.792C654.214 148.489 667.141 148.328 691.825 148.323L729.399 148.314V145.549V142.784H722.56C718.467 142.784 715.47 142.591 715.094 142.305C714.502 141.854 714.467 141.237 714.467 131.446V121.066H684.276H654.086L654.169 71.7384L654.251 22.4111L722.061 22.2947C771.913 22.2087 789.986 22.3155 790.31 22.6976C790.987 23.4975 790.964 141.159 790.286 142.123C789.896 142.679 787.049 142.784 772.27 142.784H754.718V145.556V148.329H782.31H809.902V145.556V142.784H802.663C797.466 142.784 795.314 142.627 795.035 142.229C794.431 141.37 794.494 22.7336 795.099 21.5992C795.505 20.8368 796.841 20.7943 816.919 20.9061L838.305 21.0249V81.7887V142.553L831.229 142.677L824.153 142.802L824.25 145.45L824.347 148.098L865.978 148.215L907.609 148.332V145.558V142.784H902.968C899.79 142.784 898.203 142.609 897.936 142.229C897.333 141.371 897.395 22.7336 897.999 21.6015C898.409 20.8336 901.811 20.7975 963.316 20.9084L1028.2 21.0249L1028.29 74.6265C1028.34 104.107 1028.3 128.696 1028.2 129.268L1028.03 130.307H1010.67H993.307V132.845V135.382L1010.75 135.502L1028.2 135.621L1028.29 142.437L1028.38 149.253H1037.79H1047.19V146.249V143.246H1039.93C1033.27 143.246 1032.65 143.178 1032.54 142.437C1032.48 141.992 1032.49 114.493 1032.58 81.3267L1032.75 21.0249L1047.27 20.9047L1061.8 20.7841L1061.72 72.889L1061.64 124.993L1054.58 125.118L1047.52 125.243V128.006V130.77H1056.77H1066.02V76.04C1066.02 44.7325 1066.31 21.0572 1066.31 21.0572H1094.83V35.5315L1089.72 37.39V35.5315H1070.89V37.4288V79.0162V120.604H1080.3H1089.72V78.9968V37.39L1094.83 35.5315V81.237C1094.89 110.75 1094.8 125.104 1094.58 125.713C1094.27 126.529 1093.87 126.611 1090.19 126.611H1086.14V129.14V131.669L1090.93 131.797L1095.72 131.925L1095.81 140.594L1095.9 149.263L1109.61 149.142L1123.31 149.022L1123.48 136.315L1123.64 123.607L1128.71 123.48L1133.78 123.354L1133.98 121.632C1134.09 120.685 1134.18 119.339 1134.18 118.64L1134.19 117.369H1126.92C1120.59 117.369 1119.62 117.464 1119.45 118.1C1119.34 118.502 1119.26 124.22 1119.26 130.807V142.784H1109.52H1099.78V90.1062V37.4288H1113.68C1127.12 37.4288 1127.6 37.4588 1128.27 38.353C1128.65 38.8613 1129.1 39.2771 1129.25 39.2771C1129.41 39.2771 1129.81 39.693 1130.13 40.2013C1130.45 40.7096 1130.85 41.1255 1131.01 41.1255C1131.16 41.1255 1131.58 41.5081 1131.93 41.9757C1132.29 42.4433 1132.97 43.118 1133.46 43.4742C1133.95 43.831 1134.59 44.488 1134.87 44.9344C1135.16 45.3808 1135.54 45.7463 1135.72 45.7463C1135.89 45.7463 1136.3 46.1622 1136.62 46.6705C1136.94 47.1787 1137.34 47.5946 1137.51 47.5946C1137.67 47.5946 1138 47.8548 1138.23 48.1722C1139.32 49.6393 1140.08 50.3671 1140.52 50.3671C1140.79 50.3671 1141 50.5898 1141 50.862C1141 51.1346 1141.23 51.0376 1141.5 50.6471C1141.78 50.2567 1142.43 49.5733 1142.96 49.1283C1143.49 48.6837 1143.93 48.1565 1143.93 47.9569C1143.93 47.7577 1144.11 47.5941 1144.33 47.5937C1144.55 47.5928 1145.25 46.9694 1145.87 46.2084C1146.5 45.4473 1147.16 44.824 1147.34 44.8231C1147.53 44.8226 1147.89 44.4062 1148.15 43.898C1148.4 43.3897 1148.81 42.9738 1149.04 42.9738C1149.28 42.9738 1149.84 42.4539 1150.29 41.8186C1150.73 41.1832 1151.23 40.6634 1151.39 40.6634C1151.55 40.6634 1152.05 40.1435 1152.5 39.5082C1152.94 38.8728 1153.54 38.353 1153.81 38.353C1154.09 38.353 1154.31 38.145 1154.31 37.8909C1154.31 37.5919 1169.46 37.8909 1176.71 37.8909V21.2735V77.399V117.369H1169.73H1162.75V118.959C1162.75 119.834 1162.9 120.678 1163.08 120.835C1163.26 120.992 1163.4 121.628 1163.4 122.248V123.376H1178.62H1193.83L1194 120.719C1194.09 119.258 1194.1 117.907 1194.02 117.716C1193.94 117.525 1191.04 117.369 1187.57 117.369H1181.26V77.399V21.2735H1195.62H1201.02L1210.96 21.0249L1219.24 20.895C1223.79 20.8234 1227.84 20.8793 1228.24 21.0193L1228.97 21.2735V69.3213V117.369H1222.64H1216.31V120.298V123.227L1225.81 123.532C1231.03 123.7 1237.9 123.837 1241.06 123.837L1246.83 123.838V121.066V118.293H1240.17H1233.51L1233.6 69.6591L1233.68 21.0249L1259 20.9052C1282.52 20.7938 1284.35 20.8414 1284.73 21.571C1285.3 22.693 1285.32 116.914 1284.74 117.739C1284.45 118.151 1281.19 118.293 1272.08 118.293H1259.81V166.581V214.869L1272.39 214.875C1279.31 214.878 1285.3 215.007 1285.7 215.16L1286.43 215.438V260.04C1286.43 301.976 1286.4 304.679 1285.86 305.256C1285.4 305.754 1280.2 305.872 1258.11 305.884L1230.92 305.899V244.904V183.909H1240.5H1250.07V181.423V178.937L1238.79 178.754C1232.59 178.652 1225.87 178.651 1223.86 178.749L1220.21 178.928V181.419V183.909H1223.29H1226.38L1226.3 244.788L1226.21 305.668L1214.59 305.789C1204.82 305.892 1202.89 305.805 1202.5 305.245C1202.1 304.672 1202.03 296.282 1202.03 245.138C1202.03 205.047 1202.14 185.406 1202.37 184.803C1202.67 183.993 1203.08 183.909 1206.75 183.909H1210.8V181.432V178.956L1205.38 178.722C1202.4 178.593 1198.02 178.593 1195.64 178.723L1191.32 178.957V181.433V183.909H1194.34C1196.25 183.909 1197.5 184.112 1197.75 184.464C1198.04 184.889 1198.14 198.926 1198.14 244.83C1198.14 301.252 1198.1 304.677 1197.57 305.256C1196.77 306.123 1174.83 306.184 1174.01 305.321C1173.5 304.782 1173.47 300.725 1173.54 244.442L1173.63 184.14L1177.44 184.01L1181.26 183.88V181.42V178.961L1176.34 178.712C1173.64 178.576 1169.33 178.577 1166.77 178.713L1162.1 178.962V181.436V183.909H1165.68H1169.25L1169.17 244.788L1169.08 305.668L1157.44 305.789C1149.11 305.876 1145.66 305.761 1145.34 305.386C1144.97 304.947 1144.9 295.148 1144.9 245.425C1144.91 212.735 1145 185.52 1145.1 184.949C1145.29 183.951 1145.44 183.909 1148.83 183.909H1152.37V181.436V178.962L1147.7 178.713C1145.14 178.577 1140.83 178.576 1138.12 178.712L1133.21 178.961V181.435V183.909H1136.72C1139.01 183.909 1140.36 184.101 1140.61 184.464C1140.91 184.889 1141 198.963 1141 244.996C1141 298.002 1140.95 304.975 1140.52 304.975C1140.25 304.975 1140.03 305.183 1140.03 305.437C1140.03 305.737 1135.8 305.899 1128 305.899C1118 305.899 1115.88 305.787 1115.5 305.239C1115.1 304.673 1115.04 295.992 1115.04 244.798C1115.04 198.919 1115.13 184.889 1115.42 184.464C1115.68 184.104 1116.99 183.909 1119.16 183.909H1122.5V181.396V178.882L1118.69 178.739C1116.59 178.66 1103.73 178.664 1090.12 178.748L1065.37 178.901V181.405V183.909H1087.81C1108.81 183.909 1110.28 183.961 1110.69 184.718C1111.36 185.972 1111.35 304.287 1110.68 305.239C1110.01 306.192 1004.49 306.208 1003.61 305.256C1003.08 304.677 1003.04 301.225 1003.04 244.276V183.909H1023.01H1042.97V181.368V178.826L1023.01 178.787C1012.03 178.766 996.91 178.748 989.411 178.748C981.913 178.748 965.552 178.766 953.055 178.787L930.332 178.826V181.368V183.909H952.753C971.752 183.909 975.245 184.01 975.638 184.569C976.036 185.134 976.102 193.822 976.102 245.053C976.102 299.177 976.053 304.903 975.589 305.156C974.917 305.523 869.192 305.523 868.521 305.156C868.056 304.903 868.007 299.144 868.007 244.673C868.007 190.202 868.056 184.443 868.521 184.19C868.803 184.035 877.805 183.909 888.525 183.909H908.017L907.86 181.588C907.774 180.312 907.646 179.187 907.575 179.087C907.455 178.916 870.147 178.687 858.025 178.782L852.426 178.826V181.368V183.909H857.945H863.465L863.383 244.788L863.3 305.668L848.287 305.788C838.34 305.867 833.274 305.751 833.274 305.441C833.274 305.185 833.055 304.975 832.787 304.975C832.356 304.975 832.301 298.059 832.304 245.482C832.307 212.761 832.397 185.52 832.504 184.949C832.697 183.928 832.79 183.909 837.694 183.909H842.688V181.413V178.918L836.926 178.756C833.757 178.668 825.649 178.67 818.91 178.76L806.656 178.925V181.417V183.909H817.369H828.082L828 244.788L827.918 305.668L802.824 305.786C785.896 305.866 777.525 305.748 777.099 305.423C776.478 304.95 776.467 303.907 776.467 244.426V183.909H785.881H795.294V181.368V178.826H783.776H772.258L772.172 190.725L772.085 202.623L749.93 202.742L727.776 202.861V205.63V208.399H748.686C760.187 208.399 769.828 208.526 770.111 208.68C770.574 208.933 770.624 213.6 770.624 256.767C770.624 288.837 770.513 304.868 770.288 305.467C769.96 306.341 769.297 306.361 741.432 306.361C715.726 306.361 712.893 306.289 712.716 305.63C712.608 305.228 712.519 276.559 712.519 241.92C712.519 207.282 712.428 178.292 712.316 177.498L712.113 176.054H692.19H672.267V179.057V182.061H690.283H708.299V243.98V305.899H663.503H618.707V243.98V182.061H637.047H655.388V179.057V176.054H634.956C621.686 176.054 614.455 176.215 614.324 176.516C614.206 176.789 612.211 176.978 609.436 176.978H604.748V179.519V182.061H609.024C612.547 182.061 613.404 182.195 613.893 182.825C614.462 183.559 614.487 186.085 614.487 244.695C614.487 299.988 614.438 305.827 613.973 306.081C613.302 306.447 585.158 306.447 584.487 306.081C584.022 305.827 583.973 299.976 583.973 244.559C583.973 186.776 584.005 183.283 584.541 182.704C584.94 182.273 586.295 182.086 589.086 182.076L593.062 182.061V179.519V176.978H576.345H559.628V179.519V182.061H569.517C578.974 182.061 579.421 182.1 579.743 182.958C579.973 183.568 580.054 203.375 579.998 244.992L579.916 306.13H554.109H528.303L528.22 244.722C528.16 199.724 528.236 183.147 528.504 182.688C528.797 182.184 530.874 182.061 539.054 182.061H549.24V179.519V176.978H527.816H506.392V179.519V182.061H514.956H523.52L523.716 183.1C523.973 184.464 523.98 304.216 523.723 305.168C523.545 305.829 519.931 305.899 486.134 305.899C457.483 305.899 448.65 305.769 448.351 305.344C448.052 304.919 447.963 290.775 447.966 244.465C447.969 211.286 448.059 183.672 448.166 183.1L448.362 182.061H466.989H485.616V179.519V176.978H464.326H443.035L443.26 179.866C443.385 181.454 443.545 210.188 443.617 243.719C443.72 292.34 443.664 304.76 443.338 305.054C442.868 305.479 392.118 305.579 391.344 305.156C390.879 304.903 390.83 299.102 390.83 244.194C390.83 189.646 390.882 183.44 391.34 182.787C391.793 182.143 394.081 182.061 411.629 182.061H431.407V179.519V176.978H411.281C398.08 176.978 391.155 176.819 391.155 176.516C391.155 176.215 386.34 176.054 377.359 176.054H363.563V179.057V182.061H375.087H386.61V243.98V305.899H355.935H325.259V243.98V182.061H336.621H347.982V179.057V176.054H336.293H324.604L324.688 151.679L324.772 127.304L330.859 127.178L336.945 127.053V124.521V121.99H331.101H325.256L325.339 72.2005L325.422 22.4111L341.895 22.2914L358.369 22.1717V72.0808V121.99H352.364H346.359V124.503V127.017L352.445 127.25C355.793 127.378 359.386 127.619 360.431 127.785C361.654 127.98 362.458 127.907 362.687 127.58C362.923 127.245 365.279 127.073 369.633 127.073H376.223V124.541V122.009L369.487 121.884L362.752 121.759L362.669 72.3447C362.603 33.1185 362.67 22.8542 362.993 22.5622C363.465 22.1366 387.275 22.04 388.045 22.4605C388.509 22.7142 388.558 28.7828 388.558 86.459V150.177H408.359H428.161V147.178V144.178L410.55 144.059L392.94 143.939V83.175V22.4111L423.535 22.2933L454.129 22.1754V83.1616V144.148L448.696 144.274C442.574 144.417 442.831 144.235 443.244 148.152L443.457 150.177H468.448H493.438L493.342 147.289L493.245 144.401L475.959 144.281L458.674 144.162V83.1708V22.1801H488.148C510.64 22.1801 517.715 22.3113 518.013 22.7346C518.312 23.1601 518.402 37.274 518.402 83.449C518.402 137.881 518.353 143.636 517.889 143.889C517.606 144.044 515.196 144.17 512.532 144.17H507.69V147.173V150.177H514.956C521.949 150.177 522.228 150.142 522.392 149.253C522.558 148.344 522.834 148.329 539.147 148.329H555.732V145.556V142.784H539.374C524.757 142.784 522.995 142.706 522.819 142.053C522.562 141.101 522.57 23.1971 522.827 21.8335L523.022 20.7938H551.214C578.754 20.7938 579.414 20.8146 579.742 21.6875ZM856.457 21.0743C856.921 21.328 856.97 27.1073 856.97 81.7887C856.97 136.47 856.921 142.25 856.457 142.503C855.787 142.869 843.87 142.869 843.201 142.503C842.736 142.25 842.688 136.469 842.688 81.7777C842.688 33.8541 842.771 21.2845 843.093 21.0997C843.678 20.7638 855.845 20.7402 856.457 21.0743ZM874.986 81.7887V142.553L868.355 142.678C863.267 142.774 861.663 142.667 861.462 142.216C861.161 141.542 861.097 23.4157 861.396 21.8243L861.594 20.7753L868.29 20.9001L874.986 21.0249V81.7887ZM893.199 21.6025C893.803 22.7336 893.864 141.372 893.262 142.229C892.85 142.815 880.9 143.06 879.882 142.503C879.417 142.25 879.368 136.473 879.368 81.8165C879.368 48.5927 879.466 21.2711 879.585 21.102C879.704 20.9324 882.719 20.7938 886.284 20.7938C892.079 20.7938 892.814 20.8798 893.199 21.6025ZM650.129 22.7346C650.636 23.4563 650.7 118.541 650.194 118.986C650.015 119.144 649.869 119.675 649.869 120.169C649.869 121.007 649.613 121.066 645.974 121.066H642.078V123.607V126.149H645.705C650.698 126.149 650.518 125.834 650.518 134.571C650.518 139.952 650.416 141.609 650.051 142.128C649.656 142.691 647.362 142.775 635.2 142.673L620.817 142.553L620.728 134.639C620.625 125.493 620.342 126.166 624.306 126.155L626.497 126.149V123.625V121.102L623.657 120.968L620.817 120.835L620.733 72.085C620.687 45.2726 620.719 23.0756 620.804 22.7577C621.024 21.937 649.553 21.9144 650.129 22.7346ZM366.16 71.854V118.755H375.736H385.312V71.854V24.9526H375.736H366.16V71.854ZM384.149 26.6193C384.771 26.9585 384.803 28.579 384.211 29.6889C383.822 30.4176 382.949 30.5077 375.376 30.5983L366.972 30.699L375.736 30.9638C380.556 31.1094 384.537 31.272 384.582 31.3251C384.626 31.3783 384.663 31.9416 384.663 32.5769C384.663 33.2123 384.626 33.7756 384.582 33.8287C384.537 33.8819 380.556 34.0445 375.736 34.1901L366.972 34.4548L375.376 34.5556C382.949 34.6461 383.822 34.7362 384.211 35.4649C384.779 36.5291 384.774 37.7989 384.199 38.6168C383.821 39.1547 382.196 39.2771 375.435 39.2771C370.209 39.2771 367.134 39.4453 367.134 39.7318C367.134 40.0151 370.399 40.2323 375.817 40.3094L384.5 40.4323L384.607 41.4974C384.838 43.8236 384.562 43.898 375.716 43.898C370.586 43.898 367.421 44.0717 367.296 44.36C367.164 44.6636 369.976 44.8221 375.49 44.8221C384.195 44.8221 384.663 44.921 384.663 46.7629C384.663 47.2203 384.626 47.6381 384.582 47.6912C384.537 47.7443 380.556 47.907 375.736 48.0525L366.972 48.3173L375.353 48.4181C384.295 48.5257 384.663 48.6209 384.663 50.8292C384.663 53.0523 384.311 53.1396 375.37 53.1396C369.891 53.1396 367.114 53.2963 367.323 53.5938C367.511 53.8609 371.107 54.0984 376.071 54.1714L384.5 54.2948V55.45V56.6052L375.817 56.7281C370.399 56.8053 367.134 57.0225 367.134 57.3057C367.134 57.5922 370.209 57.7604 375.435 57.7604C382.196 57.7604 383.821 57.8829 384.199 58.4207C384.454 58.7835 384.663 59.3181 384.663 59.6088C384.663 61.2986 383.916 61.4548 375.353 61.5578L366.972 61.6586L375.736 61.9233C380.556 62.0689 384.537 62.2315 384.582 62.2847C384.626 62.3378 384.663 62.9159 384.663 63.5693C384.663 65.9818 384.415 66.0516 375.359 66.1939L366.972 66.3251L375.481 66.4328C383.726 66.5368 384.002 66.5701 384.352 67.5002C385.185 69.7173 384.968 69.7746 375.727 69.7746C370.055 69.7746 367.164 69.9331 367.296 70.2367C367.421 70.525 370.553 70.6988 375.616 70.6988C382.22 70.6988 383.822 70.8221 384.199 71.3591C384.785 72.1931 384.787 72.8987 384.204 73.7272C383.839 74.248 382.055 74.4061 375.359 74.5114L366.972 74.6426L375.428 74.7503C381.483 74.827 383.994 75.0151 384.273 75.412C384.602 75.8796 384.837 78.3472 384.582 78.6508C384.537 78.7039 380.556 78.8665 375.736 79.0121L366.972 79.2769L375.438 79.3776L383.904 79.4783L384.327 80.604C384.686 81.5586 384.673 81.84 384.243 82.4523C383.81 83.0692 382.547 83.175 375.616 83.175C370.553 83.175 367.421 83.3487 367.296 83.6371C367.164 83.9407 369.935 84.0992 375.366 84.0992C379.914 84.0992 383.867 84.2253 384.149 84.3796C384.757 84.7114 384.823 85.9965 384.273 86.7792C383.994 87.1762 381.483 87.3642 375.428 87.4409L366.972 87.5486L375.359 87.6798C384.415 87.8222 384.663 87.8919 384.663 90.3045C384.663 90.9579 384.626 91.5359 384.582 91.5891C384.537 91.6422 380.556 91.8049 375.736 91.9504L366.972 92.2152L375.438 92.3159L383.904 92.4167L384.332 93.5562C384.68 94.4803 384.683 94.8297 384.347 95.4045C383.996 96.0075 382.706 96.1133 375.716 96.1133C370.586 96.1133 367.421 96.2871 367.296 96.5754C367.164 96.879 370.05 97.0375 375.711 97.0375H384.326L384.533 98.2144C384.648 98.8613 384.638 99.5373 384.513 99.7162C384.388 99.8945 380.39 100.151 375.629 100.287L366.972 100.533L375.353 100.633C384.295 100.741 384.663 100.836 384.663 103.045C384.663 105.266 384.307 105.355 375.415 105.355C369.951 105.355 367.164 105.513 367.296 105.817C367.422 106.106 370.708 106.279 376.08 106.279C384.129 106.279 384.663 106.331 384.663 107.111C384.663 108.949 384.187 109.052 375.69 109.052C370.578 109.052 367.421 109.225 367.296 109.514C367.164 109.817 369.985 109.976 375.515 109.976C384.578 109.976 384.839 110.045 384.607 112.376L384.5 113.441L375.979 113.565C370.67 113.642 367.458 113.859 367.458 114.142C367.458 114.428 370.45 114.602 375.493 114.611C381.659 114.623 383.659 114.769 384.095 115.24C384.784 115.985 384.817 116.753 384.199 117.633C383.515 118.608 367.633 118.608 366.949 117.633C366.553 117.07 366.485 110.356 366.485 71.9639C366.485 47.2088 366.582 26.8161 366.701 26.647C366.972 26.2621 383.447 26.2358 384.149 26.6193ZM625.523 72.316V117.831H635.262H645V72.316V26.8009H635.262H625.523V72.316ZM643.513 27.5435C643.873 27.7403 644.026 28.4293 644.026 29.8539V31.8838H635.586C630.176 31.8838 627.146 32.0497 627.146 32.3459C627.146 32.6421 630.176 32.808 635.586 32.808H644.026V34.4253V36.0425L635.505 36.1502L626.984 36.2574L635.505 36.3886L644.026 36.5199V38.5919V40.6634L635.505 40.771L626.984 40.8782L635.505 41.0095L644.026 41.1407V43.4437V45.7463H635.567C630.01 45.7463 627.177 45.9048 627.309 46.2084C627.434 46.4967 630.612 46.6705 635.768 46.6705H644.026V48.2877V49.905L635.505 50.0127L626.984 50.1199L635.505 50.2511L644.026 50.3824V52.4543V54.5259H635.749C630.447 54.5259 627.471 54.6917 627.471 54.9879C627.471 55.2841 630.447 55.45 635.749 55.45H644.026V57.0673V58.6846H635.586C630.176 58.6846 627.146 58.8505 627.146 59.1467C627.146 59.4429 630.176 59.6088 635.586 59.6088H644.026V60.995V62.3813H635.586C630.176 62.3813 627.146 62.5472 627.146 62.8433C627.146 63.1395 630.176 63.3054 635.586 63.3054H644.026V65.6158V67.9263L635.505 68.0339L626.984 68.1411L635.505 68.2724L644.026 68.4036V70.0135V71.6229L635.505 71.7232L626.984 71.8235L635.424 72.0892C640.066 72.2357 643.901 72.3983 643.945 72.4514C643.99 72.5041 644.026 73.2749 644.026 74.1644V75.7817H635.768C630.612 75.7817 627.434 75.9554 627.309 76.2438C627.177 76.5473 630.01 76.7058 635.567 76.7058H644.026V78.7852V80.8646L635.505 80.9723L626.984 81.0794L635.505 81.2107L644.026 81.3419V82.9518V84.5612H635.567C630.01 84.5612 627.177 84.7197 627.309 85.0233C627.434 85.3117 630.619 85.4854 635.787 85.4854H644.065L643.964 87.2182L643.864 88.951L635.424 89.1936L626.984 89.4367L635.505 89.5402L644.026 89.6442V91.7235V93.8029L635.505 93.9106L626.984 94.0178L635.505 94.149L644.026 94.2802V96.1212V97.9616H635.586C630.176 97.9616 627.146 98.1275 627.146 98.4237C627.146 98.7199 630.176 98.8858 635.586 98.8858H644.026V100.272V101.658H635.586C630.176 101.658 627.146 101.824 627.146 102.12C627.146 102.417 630.176 102.582 635.586 102.582H644.026V104.431V106.279H635.586C630.176 106.279 627.146 106.445 627.146 106.741C627.146 107.037 630.046 107.203 635.197 107.203C643.856 107.203 644.026 107.25 644.026 109.606V110.9L635.505 111L626.984 111.101L635.424 111.366C640.066 111.513 643.901 111.675 643.945 111.728C643.99 111.781 644.026 112.656 644.026 113.672V115.521H635.282H626.537L626.534 72.0397C626.532 38.9098 626.623 28.4089 626.92 27.9284C627.228 27.4298 628.945 27.2944 635.154 27.2805C639.469 27.2708 643.23 27.3891 643.513 27.5435ZM1089.39 39.0461V40.6634H1080.63H1071.86V39.0461V37.4288H1080.63H1089.39V39.0461ZM1088.88 41.4059C1089.24 41.6028 1089.39 42.2917 1089.39 43.7163V45.7463H1080.63H1071.86V43.4359V41.1255H1080.11C1084.65 41.1255 1088.6 41.2516 1088.88 41.4059ZM1089.39 48.0073C1089.39 48.8002 1089.18 49.4582 1088.88 49.6245C1088.6 49.7789 1084.65 49.905 1080.11 49.905H1071.86V48.2877V46.6705H1080.63H1089.39V48.0073ZM1089.33 52.331L1089.23 54.2948L1080.55 54.4177L1071.86 54.5411V52.4539V50.3671H1080.65H1089.43L1089.33 52.331ZM1089.39 57.0673V58.6846H1080.63H1071.86V57.0673V55.45H1080.63H1089.39V57.0673ZM1089.39 60.995V62.3813H1080.63H1071.86V60.995V59.6088H1080.63H1089.39V60.995ZM1088.88 63.5859C1089.22 63.7735 1089.39 64.4468 1089.39 65.6158C1089.39 66.7849 1089.22 67.4582 1088.88 67.6458C1088.6 67.8001 1084.65 67.9263 1080.11 67.9263H1071.86V65.6158V63.3054H1080.11C1084.65 63.3054 1088.6 63.4316 1088.88 63.5859ZM1088.88 68.6688C1089.18 68.8352 1089.39 69.4932 1089.39 70.2861V71.6229H1080.63H1071.86V70.0056V68.3883H1080.11C1084.65 68.3883 1088.6 68.5145 1088.88 68.6688ZM1088.68 72.3826C1089.29 72.615 1089.41 72.9348 1089.33 74.1094L1089.23 75.5506L1080.55 75.6735L1071.86 75.7969V73.9407V72.085L1079.9 72.0915C1084.32 72.0947 1088.27 72.226 1088.68 72.3826ZM1089.33 78.6697L1089.23 80.6335L1080.55 80.7565L1071.86 80.8798V78.7926V76.7058H1080.65H1089.43L1089.33 78.6697ZM1089.39 82.944V84.5612H1080.63H1071.86V82.944V81.3267H1080.63H1089.39V82.944ZM1088.88 85.7659C1089.18 85.929 1089.39 86.5861 1089.39 87.3337C1089.39 88.0814 1089.18 88.7385 1088.88 88.9016C1088.6 89.0559 1084.65 89.1821 1080.11 89.1821H1071.86V87.3337V85.4854H1080.11C1084.65 85.4854 1088.6 85.6116 1088.88 85.7659ZM1089.33 91.608L1089.23 93.5719L1080.55 93.6948L1071.86 93.8182V91.7309V89.6442H1080.65H1089.43L1089.33 91.608ZM1089.33 95.9978L1089.23 97.7306L1080.55 97.8535L1071.86 97.9769V96.1207V94.265H1080.65H1089.43L1089.33 95.9978ZM1089.39 100.272V101.658H1080.63H1071.86V100.272V98.8858H1080.63H1089.39V100.272ZM320.39 133.113C320.39 167.392 320.415 166.812 318.952 166.812C318.672 166.812 318.442 167.02 318.442 167.274C318.442 167.528 318.221 167.736 317.951 167.736C317.474 167.736 317.13 167.929 315.607 169.05C315.207 169.344 314.659 169.584 314.389 169.584C314.119 169.584 313.898 169.792 313.898 170.047C313.898 170.301 313.606 170.509 313.249 170.509C312.892 170.509 312.599 170.717 312.599 170.971C312.599 171.225 312.307 171.433 311.95 171.433C311.593 171.433 311.301 171.641 311.301 171.895C311.301 172.149 311.045 172.363 310.733 172.371C310.42 172.38 309.292 173.003 308.225 173.758C307.159 174.512 306.1 175.129 305.872 175.129C305.644 175.129 305.458 175.337 305.458 175.592C305.458 175.846 305.166 176.054 304.809 176.054C304.452 176.054 304.16 176.262 304.16 176.516C304.16 176.77 303.938 176.978 303.668 176.978C303.398 176.978 302.887 177.186 302.532 177.44C302.177 177.694 301.597 178.11 301.243 178.364C300.888 178.618 300.377 178.826 300.106 178.826C299.836 178.826 299.615 179.034 299.615 179.288C299.615 179.542 299.323 179.75 298.966 179.75C298.609 179.75 298.317 179.958 298.317 180.212C298.317 180.467 298.111 180.674 297.86 180.674C297.609 180.674 296.842 181.066 296.156 181.544C295.47 182.022 294.251 182.828 293.447 183.335C292.644 183.842 291.037 184.885 289.877 185.653C285.854 188.316 282.891 190.253 281.599 191.063C280.885 191.511 278.944 192.788 277.286 193.9C275.628 195.013 274.151 195.923 274.004 195.923C273.858 195.923 272.877 196.544 271.825 197.303C270.774 198.063 269.657 198.686 269.345 198.69C269.033 198.693 268.777 198.88 268.777 199.104C268.777 199.329 267.937 199.992 266.911 200.578C265.884 201.164 264.565 202.02 263.979 202.48C263.393 202.94 262.662 203.317 262.353 203.317C261.436 203.317 260.949 204.876 261.353 206.522C261.783 208.28 262.244 208.282 264.711 206.537C265.778 205.782 266.837 205.165 267.065 205.165C267.292 205.165 267.479 204.957 267.479 204.703C267.479 204.449 267.771 204.241 268.128 204.241C268.485 204.241 268.777 204.033 268.777 203.779C268.777 203.524 268.998 203.317 269.268 203.317C269.539 203.317 270.05 203.109 270.405 202.854C270.759 202.6 271.34 202.184 271.694 201.93C272.049 201.676 272.56 201.468 272.83 201.468C273.101 201.468 273.322 201.26 273.322 201.006C273.322 200.752 273.614 200.544 273.971 200.544C274.328 200.544 274.62 200.336 274.62 200.082C274.62 199.828 274.912 199.62 275.269 199.62C275.626 199.62 275.918 199.412 275.918 199.158C275.918 198.904 276.202 198.696 276.549 198.696C276.895 198.696 277.269 198.488 277.379 198.234C277.49 197.979 277.863 197.772 278.21 197.772C278.557 197.772 278.84 197.564 278.84 197.309C278.84 196.467 280.794 196.783 280.984 197.656C281.08 198.101 281.295 198.826 281.461 199.267C281.626 199.708 281.761 200.384 281.761 200.769C281.761 201.154 281.908 201.468 282.086 201.468C282.265 201.468 282.411 201.884 282.411 202.392C282.411 202.901 282.557 203.317 282.735 203.317C282.914 203.317 283.06 203.732 283.06 204.241C283.06 204.749 283.206 205.165 283.384 205.165C283.563 205.165 283.709 205.581 283.709 206.089C283.709 206.597 283.855 207.013 284.034 207.013C284.212 207.013 284.358 207.348 284.358 207.757C284.358 208.167 284.813 209.778 285.368 211.338C287.285 216.725 287.604 217.731 287.604 218.378C287.604 218.735 287.751 219.027 287.929 219.027C288.108 219.027 288.254 219.288 288.254 219.607C288.254 219.926 288.819 221.849 289.511 223.881C290.202 225.913 291.306 229.239 291.963 231.273C292.62 233.306 293.356 235.49 293.599 236.127C293.841 236.764 294.637 239.219 295.368 241.582C296.099 243.945 297.335 247.791 298.116 250.128C302.172 262.27 302.861 264.435 302.861 265.04C302.861 265.402 303.007 265.698 303.186 265.698C303.364 265.698 303.51 266.114 303.51 266.622C303.51 267.13 303.656 267.546 303.835 267.546C304.013 267.546 304.16 267.962 304.16 268.47C304.16 268.979 304.306 269.394 304.484 269.394C304.663 269.394 304.809 269.7 304.809 270.074C304.809 270.447 305.101 271.493 305.458 272.398C305.815 273.303 306.107 274.349 306.107 274.722C306.107 275.096 306.217 275.403 306.351 275.405C306.68 275.41 307.406 277.696 307.406 278.728C307.406 279.186 307.552 279.56 307.73 279.56C307.909 279.56 308.055 279.976 308.055 280.484C308.055 280.993 308.165 281.409 308.3 281.409C308.435 281.409 308.738 282.084 308.974 282.91C309.21 283.737 309.683 285.211 310.027 286.189C310.371 287.166 310.652 288.257 310.652 288.615C310.652 288.972 310.798 289.264 310.976 289.264C311.155 289.264 311.301 289.68 311.301 290.188C311.301 290.696 311.447 291.112 311.626 291.112C311.804 291.112 311.95 291.528 311.95 292.036C311.95 292.545 312.096 292.961 312.275 292.961C312.453 292.961 312.599 293.253 312.599 293.61C312.599 293.967 312.884 295.059 313.233 296.036C314.442 299.425 315.196 301.917 315.196 302.52C315.196 302.854 315.342 303.126 315.521 303.126C315.699 303.126 315.845 303.542 315.845 304.051C315.845 304.559 315.992 304.975 316.17 304.975C316.349 304.975 316.495 305.391 316.495 305.899C316.495 306.407 316.641 306.823 316.819 306.823C316.998 306.823 317.144 307.329 317.144 307.947C317.144 308.716 316.913 309.166 316.414 309.371C316.012 309.535 315.064 310.069 314.307 310.557C313.55 311.045 312.719 311.444 312.46 311.444C312.2 311.444 311.898 311.652 311.788 311.906C311.677 312.16 311.231 312.368 310.795 312.368C310.359 312.368 310.003 312.576 310.003 312.83C310.003 313.084 309.71 313.292 309.353 313.292C308.996 313.292 308.704 313.5 308.704 313.754C308.704 314.008 308.266 314.216 307.73 314.216C307.195 314.216 306.756 314.424 306.756 314.678C306.756 314.933 306.464 315.141 306.107 315.141C305.75 315.141 305.458 315.348 305.458 315.603C305.458 315.857 305.164 316.065 304.804 316.065C304.445 316.065 303.897 316.256 303.587 316.489C302.419 317.369 299.934 318.837 299.614 318.837C299.431 318.837 299.028 319.021 298.718 319.245C298.408 319.47 297.753 319.886 297.262 320.169C296.77 320.453 295.967 320.918 295.476 321.202C294.985 321.485 294.33 321.901 294.02 322.126C293.71 322.35 293.235 322.534 292.965 322.534C292.695 322.534 292.474 322.742 292.474 322.996C292.474 323.25 292.117 323.458 291.681 323.458C291.245 323.458 290.799 323.666 290.688 323.92C290.578 324.174 290.204 324.382 289.858 324.382C289.511 324.382 289.227 324.59 289.227 324.844C289.227 325.098 288.933 325.306 288.574 325.306C288.214 325.306 287.593 325.547 287.194 325.841C285.671 326.962 285.326 327.155 284.85 327.155C284.579 327.155 284.358 327.363 284.358 327.617C284.358 327.871 284.002 328.079 283.566 328.079C283.13 328.079 282.683 328.287 282.573 328.541C282.463 328.795 282.089 329.003 281.742 329.003C281.396 329.003 281.112 329.211 281.112 329.465C281.112 329.719 280.528 329.927 279.814 329.927C279.1 329.927 278.515 330.098 278.515 330.306C278.515 330.514 277.785 330.967 276.892 331.313C276 331.66 275.269 332.075 275.269 332.238C275.269 332.4 274.539 332.816 273.646 333.162C272.754 333.508 272.023 333.924 272.023 334.086C272.023 334.248 271.293 334.664 270.4 335.01C269.507 335.356 268.777 335.772 268.777 335.934C268.777 336.096 268.047 336.512 267.154 336.858C266.261 337.205 265.531 337.658 265.531 337.866C265.531 338.074 265.248 338.245 264.901 338.245C264.554 338.245 264.181 338.453 264.07 338.707C263.96 338.961 263.513 339.169 263.077 339.169C262.641 339.169 262.285 339.379 262.285 339.635C262.285 339.911 262.021 339.866 261.636 339.524C261.279 339.206 260.986 338.581 260.986 338.133C260.986 337.686 260.84 337.321 260.662 337.321C260.483 337.321 260.337 336.905 260.337 336.396C260.337 335.888 260.191 335.472 260.013 335.472C259.834 335.472 259.688 335.056 259.688 334.548C259.688 334.04 259.542 333.624 259.363 333.624C259.185 333.624 259.039 333.354 259.039 333.023C259.039 332.173 258.275 329.935 257.984 329.931C257.85 329.929 257.74 329.511 257.74 329.003C257.74 328.495 257.594 328.079 257.416 328.079C257.237 328.079 257.091 327.787 257.091 327.43C257.091 327.072 256.799 325.928 256.442 324.888C256.085 323.848 255.501 322.144 255.143 321.104C254.786 320.064 254.494 318.92 254.494 318.562C254.494 318.205 254.348 317.913 254.17 317.913C253.991 317.913 253.845 317.497 253.845 316.989C253.845 316.481 253.699 316.065 253.52 316.065C253.342 316.065 253.196 315.649 253.196 315.141C253.196 314.632 253.05 314.216 252.871 314.216C252.693 314.216 252.547 313.944 252.547 313.61C252.547 313.007 251.792 310.515 250.583 307.126C250.235 306.149 249.95 305.057 249.95 304.7C249.95 304.343 249.804 304.051 249.625 304.051C249.447 304.051 249.3 303.759 249.3 303.401C249.3 303.044 249.014 301.952 248.665 300.975C247.757 298.439 245.226 290.647 244.295 287.526C243.861 286.067 242.837 282.944 242.02 280.584C241.204 278.224 240.536 276.159 240.536 275.993C240.536 275.652 239.603 272.736 238.227 268.777C237.712 267.294 237.29 265.786 237.29 265.427C237.29 265.067 237.18 264.774 237.044 264.774C236.909 264.774 236.604 264.098 236.364 263.272C236.125 262.446 235.505 260.461 234.987 258.861C234.468 257.261 234.044 255.65 234.044 255.28C234.044 254.91 233.933 254.608 233.798 254.608C233.663 254.608 233.36 253.932 233.124 253.106C232.889 252.28 232.415 250.805 232.071 249.828C231.728 248.851 231.447 247.759 231.447 247.402C231.447 247.044 231.301 246.752 231.122 246.752C230.944 246.752 230.798 246.447 230.798 246.073C230.798 245.7 230.506 244.654 230.148 243.749C229.791 242.844 229.499 241.798 229.499 241.424C229.499 241.051 229.389 240.745 229.254 240.745C229.119 240.745 228.817 240.07 228.584 239.243C228.349 238.417 228.022 237.381 227.855 236.94C227.688 236.498 227.552 235.822 227.552 235.438C227.552 235.053 227.406 234.738 227.227 234.738C227.048 234.738 226.902 234.322 226.902 233.814C226.902 233.306 226.756 232.89 226.578 232.89C226.399 232.89 226.253 232.584 226.253 232.211C226.253 231.837 225.961 230.791 225.604 229.886C225.247 228.982 224.955 227.965 224.955 227.628C224.955 227.126 230.131 223.648 230.877 223.648C230.996 223.648 232.086 223.007 233.299 222.223C237.861 219.275 238.296 219.027 238.922 219.027C239.274 219.027 239.562 218.861 239.562 218.657C239.562 218.453 240.277 217.92 241.151 217.472C242.025 217.025 242.99 216.398 243.297 216.079C243.809 215.546 243.812 215.439 243.331 214.755C243.044 214.346 242.808 213.684 242.808 213.284C242.808 212.3 241.903 212.372 240.288 213.482C239.549 213.991 238.718 214.407 238.442 214.407C238.165 214.407 237.939 214.614 237.939 214.869C237.939 215.123 237.718 215.331 237.448 215.331C237.178 215.331 236.63 215.571 236.23 215.865C234.707 216.986 234.363 217.179 233.886 217.179C233.616 217.179 233.395 217.35 233.395 217.557C233.395 217.766 232.664 218.219 231.771 218.565C230.879 218.911 230.148 219.365 230.148 219.573C230.148 219.781 229.927 219.952 229.657 219.952C229.387 219.952 228.876 220.159 228.521 220.414C228.166 220.668 227.586 221.084 227.232 221.338C226.877 221.592 226.365 221.8 226.095 221.8C225.825 221.8 225.604 222.008 225.604 222.262C225.604 222.516 225.321 222.724 224.974 222.724C224.627 222.724 224.254 222.932 224.143 223.186C224.033 223.44 223.586 223.648 223.15 223.648C222.714 223.648 222.358 223.856 222.358 224.11C222.358 224.364 222.066 224.572 221.709 224.572C221.352 224.572 221.059 224.78 221.059 225.034C221.059 225.289 220.694 225.497 220.248 225.497C219.802 225.497 219.436 225.704 219.436 225.959C219.436 226.213 219.153 226.421 218.806 226.421C218.46 226.421 218.086 226.629 217.976 226.883C217.865 227.137 217.492 227.345 217.145 227.345C216.798 227.345 216.515 227.553 216.515 227.807C216.515 228.061 216.15 228.269 215.703 228.269C215.257 228.269 214.892 228.477 214.892 228.731C214.892 228.985 214.671 229.193 214.4 229.193C214.13 229.193 213.582 229.433 213.183 229.727C211.66 230.848 211.315 231.042 210.839 231.042C210.568 231.042 210.347 231.249 210.347 231.504C210.347 231.758 210.126 231.966 209.856 231.966C209.586 231.966 209.074 232.174 208.72 232.428C208.365 232.682 207.785 233.098 207.43 233.352C207.076 233.606 206.564 233.814 206.294 233.814C206.024 233.814 205.803 234.022 205.803 234.276C205.803 234.53 205.611 234.738 205.377 234.738C205.142 234.738 204.346 235.154 203.607 235.662C202.868 236.171 202.037 236.587 201.761 236.587C201.484 236.587 201.258 236.794 201.258 237.049C201.258 237.303 201.046 237.511 200.787 237.511C199.731 237.511 198.661 238.594 198.661 239.664C198.661 240.259 198.807 240.745 198.986 240.745C199.164 240.745 199.311 241.161 199.311 241.669C199.311 242.744 199.396 242.776 200.37 242.059C201.893 240.938 202.238 240.745 202.714 240.745C202.985 240.745 203.206 240.537 203.206 240.283C203.206 240.029 203.411 239.821 203.662 239.821C204.055 239.821 205.089 239.184 207.502 237.453C207.812 237.231 208.287 237.049 208.557 237.049C208.828 237.049 209.049 236.841 209.049 236.587C209.049 236.332 209.414 236.124 209.86 236.124C210.307 236.124 210.672 235.916 210.672 235.662C210.672 235.408 210.863 235.2 211.098 235.2C211.332 235.2 212.128 234.784 212.868 234.276C213.607 233.768 214.437 233.352 214.714 233.352C214.99 233.352 215.216 233.144 215.216 232.89C215.216 232.636 215.408 232.428 215.642 232.428C215.877 232.428 216.673 232.012 217.412 231.504C218.151 230.995 218.982 230.579 219.258 230.579C219.535 230.579 219.761 230.371 219.761 230.117C219.761 229.863 220.044 229.655 220.391 229.655C220.738 229.655 221.116 229.437 221.231 229.171C221.374 228.843 221.601 228.875 221.934 229.268C222.482 229.915 224.955 237.282 224.955 238.268C224.955 238.614 225.083 238.897 225.24 238.897C225.397 238.897 225.707 239.572 225.929 240.399C226.151 241.225 226.753 243.187 227.267 244.759C227.78 246.332 228.201 247.854 228.201 248.142C228.201 248.431 228.427 248.989 228.704 249.383C228.98 249.776 229.291 250.697 229.393 251.429C229.496 252.161 229.708 252.759 229.864 252.759C230.021 252.759 230.148 253.175 230.148 253.684C230.148 254.192 230.295 254.608 230.473 254.608C230.652 254.608 230.798 254.922 230.798 255.307C230.798 255.692 230.925 256.368 231.081 256.809C231.238 257.25 231.676 258.471 232.055 259.522C232.435 260.574 232.745 261.77 232.745 262.179C232.745 262.59 232.855 262.927 232.989 262.929C233.28 262.933 234.044 265.171 234.044 266.021C234.044 266.352 234.19 266.622 234.368 266.622C234.547 266.622 234.693 266.914 234.693 267.271C234.693 267.629 234.985 268.772 235.342 269.813C235.699 270.853 236.284 272.556 236.641 273.597C236.998 274.637 237.29 275.781 237.29 276.138C237.29 276.496 237.436 276.788 237.615 276.788C237.793 276.788 237.939 277.204 237.939 277.712C237.939 278.22 238.085 278.636 238.264 278.636C238.442 278.636 238.588 279.039 238.588 279.533C238.588 280.026 238.734 280.558 238.913 280.715C239.091 280.873 239.238 281.404 239.238 281.898C239.238 282.391 239.384 282.795 239.562 282.795C239.741 282.795 239.887 283.211 239.887 283.719C239.887 284.227 240.033 284.643 240.211 284.643C240.39 284.643 240.536 285.059 240.536 285.567C240.536 286.076 240.682 286.491 240.861 286.491C241.039 286.491 241.185 286.784 241.185 287.141C241.185 287.701 241.633 289.172 242.849 292.608C243.005 293.049 243.133 293.725 243.133 294.109C243.133 294.494 243.279 294.809 243.457 294.809C243.636 294.809 243.782 295.225 243.782 295.733C243.782 296.241 243.928 296.657 244.107 296.657C244.285 296.657 244.431 297.073 244.431 297.581C244.431 298.09 244.577 298.506 244.756 298.506C244.934 298.506 245.081 298.921 245.081 299.43C245.081 299.938 245.227 300.354 245.405 300.354C245.584 300.354 245.73 300.676 245.73 301.069C245.73 301.463 246.022 302.645 246.379 303.698C246.736 304.75 247.028 305.883 247.028 306.217C247.028 306.55 247.174 306.823 247.353 306.823C247.531 306.823 247.677 307.239 247.677 307.747C247.677 308.256 247.823 308.671 248.002 308.671C248.181 308.671 248.327 309.087 248.327 309.596C248.327 310.104 248.473 310.52 248.651 310.52C248.83 310.52 248.976 310.812 248.976 311.169C248.976 311.527 249.261 312.618 249.609 313.595C250.818 316.984 251.573 319.476 251.573 320.079C251.573 320.413 251.719 320.686 251.897 320.686C252.076 320.686 252.222 321.101 252.222 321.61C252.222 322.118 252.368 322.534 252.547 322.534C252.725 322.534 252.871 322.812 252.871 323.152C252.871 323.492 253.444 325.415 254.144 327.426C256.541 334.316 258.714 340.991 258.714 341.466C258.714 341.727 258.566 341.941 258.386 341.941C258.205 341.941 257.366 342.378 256.519 342.912C255.674 343.445 254.652 344.069 254.251 344.298C252.344 345.384 251.692 345.777 251.171 346.154C250.861 346.379 250.458 346.562 250.275 346.562C250.092 346.562 249.324 346.947 248.567 347.418C247.81 347.889 246.387 348.751 245.405 349.334C244.423 349.917 243.159 350.676 242.597 351.02C242.034 351.364 241.399 351.645 241.186 351.645C240.973 351.645 240.411 351.948 239.937 352.318C238.706 353.279 235.083 355.327 233.557 355.926C232.843 356.206 232.065 356.709 231.83 357.044C231.594 357.378 231.184 357.652 230.919 357.652C230.654 357.652 229.825 358.046 229.076 358.528C226.394 360.254 225.191 360.887 224.59 360.887C224.255 360.887 223.981 361.053 223.981 361.256C223.981 361.459 223.433 361.889 222.764 362.211C222.094 362.533 221.181 363.018 220.735 363.29C220.288 363.561 219.558 363.987 219.112 364.237C218.665 364.487 218.047 364.875 217.737 365.1C217.427 365.324 216.879 365.508 216.519 365.508C216.16 365.508 215.866 365.674 215.866 365.877C215.866 366.08 215.318 366.509 214.648 366.831C213.979 367.154 213.139 367.583 212.782 367.787C211.358 368.598 210.157 369.332 209.621 369.72C209.311 369.945 208.763 370.128 208.404 370.128C208.044 370.128 207.75 370.336 207.75 370.591C207.75 370.845 207.458 371.053 207.101 371.053C206.744 371.053 206.452 371.26 206.452 371.515C206.452 371.769 206.014 371.977 205.478 371.977C204.943 371.977 204.504 372.185 204.504 372.439C204.504 372.693 204.212 372.901 203.855 372.901C203.498 372.901 203.206 373.109 203.206 373.363C203.206 373.617 202.849 373.825 202.413 373.825C201.978 373.825 201.531 374.033 201.42 374.287C201.31 374.541 200.936 374.749 200.59 374.749C200.243 374.749 199.96 374.957 199.96 375.211C199.96 375.465 199.603 375.673 199.167 375.673C198.731 375.673 198.285 375.881 198.174 376.135C198.064 376.39 197.69 376.598 197.344 376.598C196.997 376.598 196.714 376.805 196.714 377.06C196.714 377.314 196.357 377.522 195.921 377.522C195.485 377.522 195.039 377.73 194.928 377.984C194.818 378.238 194.444 378.446 194.098 378.446C193.751 378.446 193.468 378.654 193.468 378.908C193.468 379.162 193.111 379.37 192.675 379.37C192.239 379.37 191.793 379.578 191.682 379.832C191.572 380.086 191.198 380.294 190.852 380.294C190.505 380.294 190.221 380.502 190.221 380.756C190.221 381.01 189.865 381.218 189.429 381.218C188.993 381.218 188.546 381.426 188.436 381.68C188.326 381.935 187.952 382.143 187.605 382.143C187.259 382.143 186.975 382.35 186.975 382.605C186.975 382.859 186.681 383.067 186.322 383.067C185.962 383.067 185.414 383.25 185.104 383.475C184.524 383.895 183.205 384.696 181.782 385.493C181.335 385.743 180.717 386.131 180.407 386.355C180.097 386.58 179.622 386.763 179.352 386.763C179.081 386.763 178.86 386.971 178.86 387.225C178.86 387.48 178.566 387.688 178.206 387.688C177.847 387.688 177.299 387.878 176.989 388.112C175.821 388.992 173.336 390.46 173.016 390.46C172.833 390.46 172.43 390.644 172.12 390.868C171.81 391.093 171.191 391.488 170.745 391.746C170.299 392.005 169.241 392.653 168.395 393.186C167.549 393.72 166.636 394.157 166.366 394.157C166.096 394.157 165.876 394.327 165.876 394.535C165.876 394.744 165.145 395.197 164.253 395.543C163.36 395.889 162.63 396.297 162.63 396.45C162.63 396.603 161.957 397.01 161.135 397.356C160.313 397.701 159.078 398.37 158.391 398.843C157.705 399.315 156.993 399.702 156.811 399.702C156.629 399.702 155.855 400.105 155.091 400.597C151.643 402.821 148.058 404.785 147.446 404.785C147.079 404.785 146.729 404.964 146.669 405.182C146.526 405.711 140.011 409.405 139.224 409.405C138.885 409.405 138.608 409.605 138.608 409.849C138.608 410.093 137.987 410.545 137.229 410.854C136.47 411.163 135.673 411.605 135.458 411.836C134.636 412.72 134.662 412.788 130.645 399.933C127.497 389.856 126.952 388.16 126.082 385.732C125.652 384.53 125.299 383.235 125.299 382.856C125.299 382.476 125.008 381.484 124.652 380.652C124.295 379.82 124.003 378.792 124.002 378.369C124.002 377.945 123.892 377.53 123.758 377.445C123.318 377.167 122.053 373.49 122.053 372.491C122.053 371.954 121.923 371.515 121.764 371.515C121.606 371.515 121.282 370.579 121.044 369.435C120.807 368.292 120.499 367.356 120.36 367.356C120.22 367.356 120.106 366.94 120.106 366.432C120.106 365.923 119.96 365.508 119.781 365.508C119.603 365.508 119.456 365.104 119.456 364.611C119.456 364.117 119.31 363.585 119.132 363.428C118.953 363.271 118.807 362.724 118.807 362.213C118.807 361.701 118.581 360.961 118.304 360.567C118.028 360.173 117.718 359.252 117.615 358.52C117.512 357.789 117.3 357.19 117.144 357.19C116.987 357.19 116.86 356.774 116.86 356.266C116.86 355.758 116.714 355.342 116.535 355.342C116.356 355.342 116.21 354.938 116.21 354.445C116.21 353.951 116.064 353.419 115.886 353.262C115.707 353.105 115.561 352.573 115.561 352.08C115.561 351.586 115.415 351.183 115.237 351.183C115.058 351.183 114.912 350.78 114.912 350.286C114.912 349.793 114.766 349.261 114.587 349.104C114.409 348.947 114.263 348.415 114.263 347.921C114.263 347.428 114.117 347.024 113.938 347.024C113.76 347.024 113.613 346.608 113.613 346.1C113.613 345.592 113.467 345.176 113.289 345.176C113.11 345.176 112.964 344.773 112.964 344.279C112.964 343.786 112.818 343.254 112.64 343.097C112.461 342.939 112.315 342.408 112.315 341.914C112.315 341.421 112.169 341.017 111.99 341.017C111.812 341.017 111.666 340.601 111.666 340.093C111.666 339.585 111.52 339.169 111.341 339.169C111.163 339.169 111.017 338.649 111.017 338.014C111.017 337.378 110.871 336.858 110.692 336.858C110.513 336.858 110.367 336.455 110.367 335.962C110.367 335.468 110.221 334.936 110.043 334.779C109.864 334.622 109.718 334.09 109.718 333.597C109.718 333.103 109.572 332.7 109.394 332.7C109.215 332.7 109.069 332.284 109.069 331.776C109.069 331.267 108.96 330.85 108.825 330.848C108.534 330.844 107.771 328.606 107.771 327.756C107.771 327.425 107.624 327.155 107.446 327.155C107.267 327.155 107.121 326.739 107.121 326.23C107.121 325.722 106.975 325.306 106.797 325.306C106.618 325.306 106.472 324.891 106.472 324.382C106.472 323.874 106.326 323.458 106.147 323.458C105.969 323.458 105.823 322.951 105.823 322.33C105.823 321.71 105.677 321.074 105.498 320.917C105.32 320.759 105.174 320.228 105.174 319.734C105.174 319.241 105.028 318.837 104.849 318.837C104.67 318.837 104.524 318.421 104.524 317.913C104.524 317.405 104.378 316.989 104.2 316.989C104.021 316.989 103.875 316.573 103.875 316.065C103.875 315.556 103.729 315.141 103.551 315.141C103.372 315.141 103.221 314.776 103.216 314.332C103.21 313.887 102.772 312.281 102.242 310.762C101.712 309.244 101.278 307.737 101.278 307.412C101.278 307.088 101.132 306.823 100.954 306.823C100.775 306.823 100.629 306.407 100.629 305.899C100.629 305.391 100.483 304.975 100.304 304.975C100.126 304.975 99.9799 304.653 99.9799 304.259C99.9799 303.866 99.6877 302.683 99.3307 301.631C98.9736 300.579 98.6814 299.463 98.6814 299.151C98.6814 298.838 98.5091 298.501 98.2984 298.401C97.6865 298.111 98.2679 296.657 98.996 296.657C99.3586 296.657 99.6553 296.449 99.6553 296.195C99.6553 295.941 100.02 295.733 100.467 295.733C100.913 295.733 101.278 295.525 101.278 295.271C101.278 295.017 101.635 294.809 102.071 294.809C102.507 294.809 102.953 294.601 103.064 294.347C103.174 294.093 103.548 293.885 103.894 293.885C104.241 293.885 104.524 293.677 104.524 293.423C104.524 293.169 104.819 292.961 105.178 292.961C105.809 292.961 106.122 292.797 107.685 291.646C108.084 291.353 108.705 291.112 109.064 291.112C109.424 291.112 109.718 290.904 109.718 290.65C109.718 290.396 110.002 290.188 110.348 290.188C110.695 290.188 111.069 289.98 111.179 289.726C111.289 289.472 111.736 289.264 112.172 289.264C112.608 289.264 112.964 289.093 112.964 288.885C112.964 288.677 113.695 288.224 114.587 287.878C115.48 287.532 116.21 287.078 116.21 286.87C116.21 286.662 116.504 286.491 116.864 286.491C117.223 286.491 117.808 286.284 118.163 286.029C118.517 285.775 119.097 285.359 119.452 285.105C119.807 284.851 120.391 284.643 120.75 284.643C121.11 284.643 121.404 284.48 121.404 284.282C121.404 284.083 122.098 283.633 122.946 283.28C123.794 282.928 124.707 282.491 124.975 282.309C125.243 282.127 125.864 281.746 126.354 281.463C126.845 281.179 127.576 280.751 127.977 280.513C128.379 280.275 129.073 279.934 129.519 279.756C129.966 279.577 131.061 278.965 131.954 278.394C132.847 277.823 134.088 277.104 134.713 276.795C135.338 276.486 136.141 276.065 136.499 275.859C140.064 273.809 143.251 272.167 143.665 272.167C143.945 272.167 144.375 271.88 144.621 271.529C144.867 271.179 145.623 270.744 146.301 270.563C146.979 270.382 147.607 270.095 147.697 269.925C147.959 269.43 151.388 267.546 152.028 267.546C152.35 267.546 152.832 267.234 153.1 266.853C153.368 266.472 154.161 266.029 154.862 265.87C155.563 265.71 156.137 265.398 156.137 265.176C156.137 264.955 156.364 264.774 156.64 264.774C156.916 264.774 157.747 264.358 158.486 263.849C159.225 263.341 160.168 262.925 160.581 262.925C160.994 262.925 161.331 262.751 161.331 262.538C161.331 261.98 162.846 261.077 163.781 261.077C164.219 261.077 164.577 260.869 164.577 260.615C164.577 260.361 164.798 260.153 165.069 260.153C165.545 260.153 165.89 259.96 167.413 258.839C167.812 258.545 168.433 258.304 168.793 258.304C169.152 258.304 169.446 258.096 169.446 257.842C169.446 257.588 169.73 257.38 170.076 257.38C170.423 257.38 170.797 257.172 170.907 256.918C171.018 256.664 171.464 256.456 171.9 256.456C172.336 256.456 172.693 256.248 172.693 255.994C172.693 255.74 172.987 255.532 173.346 255.532C173.706 255.532 174.29 255.324 174.645 255.07C174.999 254.816 175.58 254.4 175.934 254.146C176.289 253.892 176.873 253.684 177.233 253.684C177.592 253.684 177.886 253.476 177.886 253.221C177.886 252.967 178.178 252.759 178.535 252.759C178.893 252.759 179.185 252.551 179.185 252.297C179.185 252.043 179.56 251.835 180.019 251.835C181.096 251.835 182.021 250.605 181.501 249.865C181.298 249.576 181.132 248.862 181.132 248.277C181.132 247.048 180.484 246.895 179.417 247.873C179.021 248.235 177.821 248.948 176.75 249.457C175.679 249.966 174.364 250.708 173.829 251.106C173.293 251.504 172.555 251.831 172.189 251.832C171.823 251.834 171.38 252.04 171.204 252.291C171.028 252.542 169.802 253.285 168.48 253.942C167.157 254.6 165.672 255.434 165.18 255.797C164.688 256.159 163.975 256.456 163.596 256.456C163.218 256.456 162.704 256.747 162.454 257.102C162.205 257.456 161.156 258.12 160.124 258.575C159.092 259.029 158.174 259.52 158.085 259.664C157.836 260.067 155.673 261.077 155.059 261.077C154.76 261.077 154.514 261.285 154.514 261.539C154.514 261.793 154.293 262.001 154.023 262.001C153.753 262.001 153.242 262.209 152.887 262.463C152.532 262.717 151.952 263.133 151.597 263.387C151.243 263.641 150.658 263.849 150.299 263.849C149.939 263.849 149.645 264.057 149.645 264.311C149.645 264.566 149.28 264.774 148.834 264.774C148.387 264.774 148.022 264.982 148.022 265.236C148.022 265.49 147.584 265.698 147.048 265.698C146.513 265.698 146.074 265.906 146.074 266.16C146.074 266.414 145.791 266.622 145.444 266.622C145.098 266.622 144.724 266.83 144.614 267.084C144.503 267.338 144.057 267.546 143.621 267.546C143.185 267.546 142.828 267.754 142.828 268.008C142.828 268.262 142.463 268.47 142.017 268.47C141.571 268.47 141.205 268.678 141.205 268.932C141.205 269.186 140.922 269.394 140.575 269.394C140.229 269.394 139.855 269.602 139.745 269.856C139.634 270.111 139.196 270.319 138.771 270.319C138.346 270.319 137.907 270.526 137.797 270.781C137.687 271.035 137.313 271.243 136.966 271.243C136.62 271.243 136.336 271.451 136.336 271.705C136.336 271.959 135.898 272.167 135.362 272.167C134.827 272.167 134.389 272.375 134.389 272.629C134.389 272.883 134.105 273.091 133.758 273.091C133.412 273.091 133.038 273.299 132.928 273.553C132.817 273.807 132.371 274.015 131.935 274.015C131.499 274.015 131.142 274.223 131.142 274.477C131.142 274.731 130.786 274.939 130.35 274.939C129.914 274.939 129.467 275.147 129.357 275.401C129.247 275.656 128.873 275.864 128.526 275.864C128.18 275.864 127.896 276.071 127.896 276.326C127.896 276.58 127.458 276.788 126.923 276.788C126.387 276.788 125.949 276.996 125.949 277.25C125.949 277.504 125.657 277.712 125.299 277.712C124.942 277.712 124.65 277.92 124.65 278.174C124.65 278.428 124.212 278.636 123.676 278.636C123.141 278.636 122.703 278.807 122.703 279.014C122.703 279.223 121.972 279.676 121.08 280.022C120.187 280.368 119.456 280.822 119.456 281.03C119.456 281.238 119.1 281.409 118.664 281.409C118.228 281.409 117.781 281.616 117.671 281.871C117.561 282.125 117.187 282.333 116.84 282.333C116.494 282.333 116.21 282.541 116.21 282.795C116.21 283.049 115.772 283.257 115.237 283.257C114.701 283.257 114.263 283.465 114.263 283.719C114.263 283.973 113.979 284.181 113.633 284.181C113.286 284.181 112.912 284.389 112.802 284.643C112.692 284.897 112.245 285.105 111.809 285.105C111.373 285.105 111.017 285.276 111.017 285.484C111.017 285.692 110.286 286.145 109.394 286.491C108.501 286.838 107.771 287.291 107.771 287.499C107.771 287.707 107.476 287.878 107.117 287.878C106.757 287.878 106.209 288.061 105.899 288.286C105.372 288.668 104.725 289.057 102.739 290.188C102.293 290.442 101.562 290.858 101.116 291.112C99.13 292.243 98.4828 292.633 97.9556 293.015C97.6456 293.239 97.1924 293.423 96.9487 293.423C96.7049 293.423 96.0469 294.047 95.4863 294.809C94.926 295.571 94.1739 296.195 93.8152 296.195C93.4565 296.195 93.1631 296.358 93.1631 296.557C93.1631 296.755 92.4694 297.202 91.6212 297.549C90.773 297.897 89.5612 298.549 88.9279 298.998C88.2949 299.447 87.2357 299.959 86.5744 300.136C85.9135 300.312 85.3724 300.627 85.3724 300.836C85.3724 301.045 85.0439 301.347 84.6421 301.507C84.2405 301.667 83.6195 301.987 83.2625 302.219C82.9054 302.45 82.0289 302.935 81.3148 303.296C80.6007 303.658 79.2493 304.392 78.3121 304.926C74.4571 307.126 73.1723 307.747 72.4737 307.747H71.7388V276.178V244.609L72.5529 243.601C73.0006 243.047 73.5761 242.594 73.8322 242.594C74.088 242.594 74.3876 242.386 74.498 242.131C74.6084 241.877 75.055 241.669 75.491 241.669C75.9269 241.669 76.2833 241.461 76.2833 241.207C76.2833 240.953 76.5044 240.745 76.7748 240.745C77.0449 240.745 77.5561 240.537 77.9109 240.283C78.2654 240.029 78.8458 239.613 79.2003 239.359C79.5551 239.105 80.0663 238.897 80.3364 238.897C80.6068 238.897 80.8279 238.689 80.8279 238.435C80.8279 238.181 81.1843 237.973 81.6203 237.973C82.0562 237.973 82.5029 237.765 82.6132 237.511C82.7236 237.257 83.0972 237.049 83.4439 237.049C83.7906 237.049 84.074 236.878 84.074 236.67C84.074 236.462 84.8044 236.008 85.697 235.662C86.5897 235.316 87.3201 234.863 87.3201 234.655C87.3201 234.447 87.5411 234.276 87.8115 234.276C88.0816 234.276 88.5565 234.093 88.8665 233.868C89.4236 233.465 90.5263 232.805 91.9458 232.028C92.3476 231.807 93.1144 231.364 93.65 231.042C94.1856 230.719 94.989 230.251 95.4353 230.002C95.8817 229.752 96.5004 229.364 96.8104 229.139C97.1204 228.915 97.5187 228.731 97.6949 228.731C97.8715 228.731 98.9726 228.107 100.142 227.345C101.312 226.582 102.455 225.959 102.682 225.959C102.91 225.959 103.235 225.781 103.404 225.564C103.574 225.348 105.32 224.285 107.284 223.204C109.247 222.122 111.372 220.861 112.006 220.402C112.639 219.942 113.698 219.422 114.359 219.245C115.02 219.069 115.561 218.75 115.561 218.536C115.561 218.322 116.036 217.946 116.616 217.699C117.196 217.453 118.401 216.839 119.294 216.334C120.187 215.83 121.428 215.156 122.053 214.836C122.678 214.517 123.847 213.838 124.65 213.327C125.454 212.816 126.403 212.247 126.76 212.062C127.117 211.878 128.102 211.289 128.948 210.756C129.794 210.222 130.78 209.786 131.139 209.786C131.498 209.786 131.793 209.63 131.794 209.439C131.797 209.035 133.362 207.937 133.936 207.937C134.273 207.937 135.359 207.256 137.711 205.569C138.021 205.347 138.569 205.165 138.929 205.165C139.288 205.165 139.582 204.957 139.582 204.703C139.582 204.449 139.803 204.241 140.074 204.241C140.344 204.241 140.819 204.057 141.129 203.833C141.439 203.608 142.13 203.168 142.666 202.854C143.202 202.541 143.893 202.101 144.203 201.876C144.513 201.652 144.988 201.468 145.258 201.468C145.529 201.468 145.75 201.26 145.75 201.006C145.75 200.752 146.188 200.544 146.724 200.544C147.259 200.544 147.698 200.336 147.698 200.082C147.698 199.828 147.99 199.62 148.347 199.62C148.704 199.62 148.996 199.412 148.996 199.158C148.996 198.904 149.352 198.696 149.788 198.696C150.224 198.696 150.671 198.488 150.781 198.234C150.892 197.979 151.265 197.772 151.612 197.772C151.959 197.772 152.242 197.564 152.242 197.309C152.242 197.055 152.525 196.847 152.872 196.847C153.219 196.847 153.592 196.639 153.703 196.385C153.813 196.131 154.26 195.923 154.696 195.923C155.132 195.923 155.488 195.715 155.488 195.461C155.488 195.207 155.78 194.999 156.137 194.999C156.494 194.999 156.787 194.791 156.787 194.537C156.787 194.283 157.225 194.075 157.76 194.075C158.296 194.075 158.734 193.867 158.734 193.613C158.734 193.359 159.026 193.151 159.383 193.151C159.741 193.151 160.033 192.943 160.033 192.689C160.033 192.435 160.389 192.227 160.825 192.227C161.261 192.227 161.708 192.019 161.818 191.764C161.928 191.51 162.302 191.302 162.649 191.302C162.995 191.302 163.279 191.094 163.279 190.84C163.279 190.586 163.635 190.378 164.071 190.378C164.507 190.378 164.954 190.17 165.064 189.916C165.175 189.662 165.548 189.454 165.895 189.454C166.242 189.454 166.525 189.246 166.525 188.992C166.525 188.738 166.89 188.53 167.336 188.53C167.783 188.53 168.148 188.322 168.148 188.068C168.148 187.814 168.513 187.606 168.959 187.606C169.406 187.606 169.771 187.398 169.771 187.144C169.771 186.89 170.136 186.682 170.583 186.682C171.029 186.682 171.394 186.474 171.394 186.219C171.394 185.965 171.615 185.757 171.886 185.757C172.156 185.757 172.631 185.574 172.941 185.349C173.251 185.125 173.869 184.737 174.316 184.487C174.762 184.237 175.565 183.769 176.101 183.447C176.637 183.125 177.367 182.709 177.724 182.523C179.12 181.795 181.073 180.649 183.158 179.334C184.004 178.801 184.816 178.364 184.963 178.364C185.11 178.364 185.835 177.948 186.574 177.44C187.313 176.932 188.144 176.516 188.421 176.516C188.697 176.516 188.923 176.345 188.923 176.137C188.923 175.929 189.653 175.476 190.546 175.129C191.439 174.783 192.169 174.375 192.169 174.223C192.169 174.07 192.863 173.658 193.711 173.307C194.559 172.955 195.326 172.545 195.415 172.394C195.504 172.244 196.162 171.842 196.876 171.501C197.59 171.161 198.759 170.504 199.473 170.043C201.997 168.412 205.007 166.731 206.29 166.236C207.004 165.961 207.661 165.591 207.75 165.415C207.996 164.929 213.619 161.68 214.719 161.388C215.248 161.248 215.865 160.872 216.088 160.554C216.312 160.236 217.339 159.603 218.371 159.148C219.403 158.694 220.321 158.2 220.41 158.052C220.715 157.546 222.387 156.646 223.022 156.646C223.371 156.646 223.656 156.438 223.656 156.184C223.656 155.93 223.948 155.722 224.305 155.722C224.663 155.722 224.955 155.514 224.955 155.26C224.955 155.006 225.311 154.798 225.747 154.798C226.183 154.798 226.63 154.59 226.74 154.336C226.85 154.082 227.224 153.874 227.571 153.874C227.917 153.874 228.201 153.703 228.201 153.495C228.201 153.287 228.931 152.834 229.824 152.487C230.717 152.141 231.447 151.725 231.447 151.563C231.447 151.401 232.177 150.985 233.07 150.639C233.963 150.293 234.693 149.84 234.693 149.631C234.693 149.423 235.058 149.253 235.505 149.253C235.951 149.253 236.316 149.045 236.316 148.791C236.316 148.537 236.599 148.329 236.946 148.329C237.293 148.329 237.666 148.121 237.777 147.867C237.887 147.612 238.334 147.405 238.77 147.405C239.206 147.405 239.562 147.197 239.562 146.942C239.562 146.688 239.846 146.48 240.192 146.48C240.539 146.48 240.913 146.272 241.023 146.018C241.133 145.764 241.58 145.556 242.016 145.556C242.452 145.556 242.808 145.348 242.808 145.094C242.808 144.84 243.029 144.632 243.3 144.632C243.57 144.632 244.045 144.449 244.355 144.224C244.665 143.999 245.32 143.584 245.811 143.3C246.302 143.016 247.105 142.551 247.596 142.268C248.087 141.984 248.742 141.568 249.052 141.343C249.362 141.119 249.837 140.935 250.107 140.935C250.378 140.935 250.599 140.727 250.599 140.473C250.599 140.219 250.964 140.011 251.41 140.011C251.857 140.011 252.222 139.803 252.222 139.549C252.222 139.295 252.587 139.087 253.033 139.087C253.48 139.087 253.845 138.917 253.845 138.709C253.845 138.5 254.575 138.047 255.468 137.701C256.361 137.355 257.091 136.939 257.091 136.777C257.091 136.614 257.821 136.199 258.714 135.852C259.607 135.506 260.337 135.053 260.337 134.845C260.337 134.637 260.621 134.466 260.967 134.466C261.314 134.466 261.688 134.258 261.798 134.004C261.908 133.75 262.355 133.542 262.791 133.542C263.227 133.542 263.583 133.334 263.583 133.08C263.583 132.826 263.867 132.618 264.213 132.618C264.56 132.618 264.934 132.41 265.044 132.156C265.154 131.902 265.601 131.694 266.037 131.694C266.473 131.694 266.829 131.486 266.829 131.232C266.829 130.977 267.122 130.77 267.479 130.77C267.836 130.77 268.128 130.562 268.128 130.307C268.128 130.053 268.422 129.845 268.782 129.845C269.141 129.845 269.689 129.655 269.999 129.421C271.167 128.541 273.652 127.073 273.972 127.073C274.155 127.073 274.558 126.873 274.868 126.628C275.928 125.79 278.312 124.3 278.592 124.3C278.746 124.3 279.476 123.884 280.215 123.376C280.954 122.868 281.673 122.452 281.813 122.452C281.953 122.452 282.843 121.947 283.792 121.329C284.74 120.711 286.169 119.858 286.966 119.433C289.908 117.864 291.376 117.028 292.961 116.022C293.853 115.455 294.985 114.876 295.476 114.736C295.967 114.596 296.369 114.318 296.369 114.119C296.369 113.921 297.099 113.491 297.992 113.166C298.885 112.84 299.615 112.405 299.615 112.199C299.615 111.993 299.836 111.824 300.105 111.824C300.562 111.824 301.56 111.259 305.061 109.017C305.824 108.528 306.737 108.127 307.09 108.127C307.442 108.127 307.73 107.953 307.73 107.739C307.73 107.526 308.351 107.074 309.11 106.735C309.869 106.396 310.628 105.946 310.798 105.737C310.968 105.527 311.442 105.355 311.853 105.355C312.263 105.355 312.601 105.199 312.602 105.008C312.606 104.492 314.244 103.507 315.099 103.507C315.51 103.507 315.845 103.299 315.845 103.045C315.845 102.79 316.138 102.582 316.495 102.582C316.852 102.582 317.144 102.375 317.144 102.12C317.144 101.866 317.5 101.658 317.936 101.658C318.372 101.658 318.819 101.45 318.929 101.196C319.04 100.942 319.413 100.734 319.76 100.734C320.378 100.734 320.39 101.37 320.39 133.113ZM1089.39 104.431V106.279H1080.63H1071.86V104.431V102.582H1080.63H1089.39V104.431ZM1088.82 107.847C1089.14 108.184 1089.39 109.009 1089.39 109.68V110.9H1080.63H1071.86V109.36C1071.86 108.512 1071.96 107.681 1072.08 107.512C1072.2 107.342 1075.89 107.21 1080.28 107.218C1086.4 107.229 1088.39 107.376 1088.82 107.847ZM1088.66 111.653C1089.26 111.881 1089.39 112.256 1089.39 113.727V115.521H1080.63H1071.86V113.75C1071.86 112.775 1071.96 111.839 1072.08 111.67C1072.35 111.287 1087.66 111.271 1088.66 111.653ZM1089.39 117.665C1089.39 119.99 1088.93 120.111 1080.06 120.127L1071.86 120.142V118.293V116.445H1080.63H1089.39V117.665ZM1285.93 124.466C1286.52 125.072 1286.53 126.509 1286.32 166.808C1286.17 196.821 1286.01 208.7 1285.74 209.154C1285.19 210.109 1264.84 210.081 1264.17 209.125C1263.78 208.563 1263.71 202.244 1263.71 166.422C1263.71 133.219 1263.79 124.329 1264.11 124.144C1264.34 124.016 1269.2 123.895 1274.92 123.875C1283.21 123.846 1285.45 123.966 1285.93 124.466ZM710.506 127.165C710.777 127.551 710.896 130.01 710.896 135.254V142.789L682.574 142.67L654.251 142.553L654.162 135.178C654.112 131.122 654.144 127.535 654.233 127.207C654.459 126.365 709.915 126.324 710.506 127.165ZM925.919 143.424C925.824 143.776 925.792 144.972 925.848 146.081L925.95 148.098L957.031 148.215L988.113 148.333V145.558V142.784H957.102C930.975 142.784 926.065 142.884 925.919 143.424ZM320.39 238.435C320.39 279.04 320.271 305.949 320.091 306.107C319.926 306.252 319.401 305.173 318.923 303.709C318.445 302.245 317.642 299.799 317.138 298.275C316.635 296.75 315.538 293.423 314.701 290.881C313.864 288.34 312.61 284.549 311.915 282.457C311.22 280.366 310.652 278.257 310.652 277.771C310.652 277.284 310.446 276.774 310.195 276.638C309.944 276.5 309.634 275.698 309.506 274.855C309.377 274.012 309.181 273.218 309.069 273.091C308.656 272.621 307.406 269.012 307.406 268.292C307.406 267.882 307.26 267.546 307.081 267.546C306.902 267.546 306.756 267.13 306.756 266.622C306.756 266.114 306.61 265.698 306.432 265.698C306.253 265.698 306.107 265.38 306.107 264.991C306.107 264.603 305.669 263.049 305.133 261.539C304.598 260.028 304.16 258.564 304.16 258.285C304.16 258.005 303.933 257.454 303.657 257.06C303.38 256.667 303.07 255.746 302.967 255.014C302.864 254.282 302.652 253.684 302.496 253.684C302.34 253.684 302.212 253.268 302.212 252.759C302.212 252.251 302.066 251.835 301.887 251.835C301.709 251.835 301.563 251.521 301.563 251.136C301.563 250.751 301.417 250.023 301.238 249.518C301.06 249.014 300.767 248.185 300.589 247.676C300.41 247.168 300.135 246.388 299.977 245.944C298.546 241.918 297.667 239.124 297.667 238.601C297.667 238.256 297.521 237.973 297.343 237.973C297.164 237.973 297.018 237.569 297.018 237.076C297.018 236.582 296.872 236.05 296.694 235.893C296.515 235.736 296.369 235.204 296.369 234.711C296.369 234.217 296.223 233.814 296.044 233.814C295.866 233.814 295.72 233.398 295.72 232.89C295.72 232.382 295.574 231.966 295.395 231.966C295.217 231.966 295.07 231.55 295.07 231.042C295.07 230.533 294.924 230.117 294.746 230.117C294.567 230.117 294.421 229.701 294.421 229.193C294.421 228.685 294.275 228.269 294.097 228.269C293.918 228.269 293.772 227.853 293.772 227.345C293.772 226.837 293.626 226.421 293.447 226.421C293.269 226.421 293.123 226.106 293.123 225.721C293.123 225.337 292.995 224.661 292.839 224.219C291.623 220.784 291.175 219.312 291.175 218.752C291.175 218.395 291.029 218.103 290.851 218.103C290.672 218.103 290.526 217.687 290.526 217.179C290.526 216.671 290.38 216.255 290.201 216.255C290.023 216.255 289.877 215.839 289.877 215.331C289.877 214.822 289.731 214.407 289.552 214.407C289.374 214.407 289.227 213.991 289.227 213.482C289.227 212.974 289.081 212.558 288.903 212.558C288.724 212.558 288.578 212.283 288.578 211.947C288.578 211.368 287.374 207.521 285.971 203.619C285.619 202.642 285.332 201.551 285.332 201.193C285.332 200.836 285.186 200.544 285.008 200.544C284.829 200.544 284.683 200.128 284.683 199.62C284.683 199.112 284.537 198.696 284.358 198.696C284.18 198.696 284.034 198.292 284.034 197.799C284.034 197.305 283.888 196.773 283.709 196.616C283.187 196.157 283.32 194.075 283.871 194.075C284.139 194.075 284.358 193.867 284.358 193.613C284.358 193.359 284.642 193.151 284.988 193.151C285.335 193.151 285.709 192.943 285.819 192.689C285.929 192.435 286.303 192.227 286.65 192.227C286.996 192.227 287.28 192.019 287.28 191.764C287.28 191.51 287.572 191.302 287.929 191.302C288.286 191.302 288.578 191.094 288.578 190.84C288.578 190.586 288.799 190.378 289.07 190.378C289.34 190.378 289.851 190.17 290.206 189.916C290.56 189.662 291.141 189.246 291.495 188.992C291.85 188.738 292.361 188.53 292.631 188.53C292.902 188.53 293.123 188.322 293.123 188.068C293.123 187.814 293.415 187.606 293.772 187.606C294.129 187.606 294.421 187.398 294.421 187.144C294.421 186.89 294.626 186.682 294.877 186.682C295.129 186.682 295.895 186.276 296.582 185.78C298.962 184.059 300.713 182.985 301.137 182.985C301.371 182.985 301.563 182.777 301.563 182.523C301.563 182.269 301.855 182.061 302.212 182.061C302.569 182.061 302.861 181.853 302.861 181.599C302.861 181.344 303.053 181.137 303.287 181.137C303.521 181.137 304.318 180.721 305.057 180.212C305.796 179.704 306.627 179.288 306.903 179.288C307.179 179.288 307.406 179.08 307.406 178.826C307.406 178.572 307.698 178.364 308.055 178.364C308.412 178.364 308.704 178.156 308.704 177.902C308.704 177.648 308.926 177.44 309.197 177.44C309.468 177.44 310.381 176.943 311.226 176.336C312.071 175.73 313.638 174.665 314.709 173.971C315.781 173.277 317.379 172.227 318.261 171.636C319.143 171.046 319.983 170.667 320.127 170.794C320.272 170.921 320.39 201.36 320.39 238.435ZM998.628 184.64C998.885 185.595 998.885 304.213 998.628 305.168C998.455 305.809 997.36 305.899 989.678 305.899C982.525 305.899 980.84 305.778 980.461 305.239C980.064 304.673 979.997 296.037 979.997 245.138C979.997 205.047 980.107 185.406 980.333 184.803C980.653 183.952 981.102 183.909 989.55 183.909C997.349 183.909 998.455 183.998 998.628 184.64ZM67.3299 261.819C67.7958 262.074 67.8435 270.821 67.8435 356.223C67.8435 428.814 67.7542 450.473 67.4539 450.901C67.1563 451.324 59.6799 451.455 35.7814 451.455C9.10206 451.455 4.42995 451.358 4.03458 450.795C3.63563 450.227 3.57071 437.065 3.57071 356.731C3.57071 293.229 3.67816 263.04 3.90668 262.433C4.23551 261.558 4.92953 261.539 35.5295 261.539C52.7374 261.539 67.0475 261.665 67.3299 261.819ZM95.9453 301.014C96.2004 301.377 96.4092 302.001 96.4092 302.4C96.4092 302.8 96.5552 303.126 96.7338 303.126C96.9123 303.126 97.0584 303.542 97.0584 304.051C97.0584 304.559 97.1782 304.975 97.3242 304.975C97.4706 304.975 97.7891 306.014 98.0322 307.285C98.2753 308.556 98.5938 309.596 98.7402 309.596C98.8863 309.596 99.006 310.011 99.006 310.52C99.006 311.028 99.1521 311.444 99.3307 311.444C99.5092 311.444 99.6553 311.86 99.6553 312.368C99.6553 312.876 99.8013 313.292 99.9799 313.292C100.158 313.292 100.304 313.565 100.304 313.898C100.304 314.502 101.059 316.994 102.268 320.383C102.616 321.36 102.901 322.451 102.901 322.809C102.901 323.166 103.047 323.458 103.226 323.458C103.405 323.458 103.551 323.773 103.551 324.158C103.551 324.542 103.687 325.218 103.854 325.659C104.208 326.594 108.017 338.036 108.428 339.4C108.581 339.908 109.226 341.965 109.862 343.97C110.497 345.976 111.017 347.899 111.017 348.245C111.017 348.59 111.16 348.873 111.335 348.873C111.51 348.873 111.751 349.444 111.869 350.143C111.988 350.842 112.574 352.812 113.174 354.522C113.773 356.231 114.263 358.05 114.263 358.565C114.263 359.08 114.392 359.5 114.55 359.5C114.707 359.5 115.174 360.696 115.586 362.157C115.999 363.619 116.6 365.438 116.921 366.201C117.243 366.963 117.507 368.055 117.508 368.627C117.508 369.198 117.644 369.666 117.808 369.666C117.973 369.666 118.282 370.42 118.496 371.34C118.709 372.261 119.305 374.154 119.819 375.546C120.334 376.939 120.755 378.472 120.755 378.955C120.755 379.438 120.865 379.832 121 379.832C121.135 379.832 121.437 380.508 121.671 381.334C121.905 382.16 122.233 383.197 122.399 383.638C122.566 384.079 122.703 384.755 122.703 385.14C122.703 385.525 122.812 385.841 122.946 385.843C123.275 385.848 124.001 388.133 124.001 389.166C124.001 389.624 124.111 389.998 124.246 389.998C124.381 389.998 124.689 390.674 124.93 391.5C125.171 392.325 125.791 394.288 126.308 395.86C126.824 397.433 127.247 399.044 127.247 399.442C127.247 399.839 127.393 400.164 127.572 400.164C127.75 400.164 127.896 400.58 127.896 401.088C127.896 401.596 128.042 402.012 128.221 402.012C128.399 402.012 128.546 402.327 128.546 402.712C128.546 403.096 128.673 403.772 128.83 404.214C130.046 407.649 130.493 409.12 130.493 409.68C130.493 410.038 130.639 410.33 130.818 410.33C130.996 410.33 131.142 410.746 131.142 411.254C131.142 411.762 131.288 412.178 131.467 412.178C131.646 412.178 131.792 412.594 131.792 413.102C131.792 413.718 131.575 414.026 131.142 414.026C130.785 414.026 130.493 414.193 130.493 414.395C130.493 414.828 128.583 415.875 127.792 415.875C127.493 415.875 127.247 416.083 127.247 416.337C127.247 416.591 127.056 416.799 126.821 416.799C126.587 416.799 125.791 417.215 125.051 417.723C124.312 418.231 123.582 418.647 123.428 418.647C123.275 418.647 122.544 419.063 121.805 419.571C121.066 420.08 120.244 420.495 119.978 420.495C119.712 420.495 119.405 420.703 119.294 420.958C119.184 421.212 118.737 421.42 118.301 421.42C117.865 421.42 117.509 421.628 117.509 421.882C117.509 422.136 117.225 422.344 116.879 422.344C116.532 422.344 116.158 422.552 116.048 422.806C115.938 423.06 115.491 423.268 115.055 423.268C114.619 423.268 114.263 423.476 114.263 423.73C114.263 423.984 113.971 424.192 113.613 424.192C113.256 424.192 112.964 424.4 112.964 424.654C112.964 424.908 112.526 425.116 111.99 425.116C111.455 425.116 111.017 425.324 111.017 425.578C111.017 425.832 110.724 426.04 110.367 426.04C110.01 426.04 109.718 426.248 109.718 426.503C109.718 426.757 109.424 426.965 109.064 426.965C108.705 426.965 108.157 427.148 107.847 427.373C107.537 427.597 106.882 428.013 106.391 428.297C105.9 428.581 105.096 429.045 104.606 429.329C104.115 429.613 103.459 430.029 103.149 430.253C102.839 430.478 102.364 430.661 102.094 430.661C101.824 430.661 101.603 430.869 101.603 431.123C101.603 431.377 101.309 431.585 100.949 431.585C100.59 431.585 100.042 431.769 99.7319 431.993C99.1748 432.397 98.0721 433.056 96.6526 433.834C95.4347 434.502 94.0067 435.367 93.4111 435.798C93.1011 436.023 92.6262 436.206 92.3561 436.206C92.0857 436.206 91.8646 436.414 91.8646 436.668C91.8646 436.922 91.5082 437.13 91.0723 437.13C90.6363 437.13 90.1896 437.338 90.0793 437.592C89.9689 437.847 89.5953 438.055 89.2486 438.055C88.9019 438.055 88.6185 438.263 88.6185 438.517C88.6185 438.771 88.2621 438.979 87.8261 438.979C87.3902 438.979 86.9435 439.187 86.8332 439.441C86.7228 439.695 86.3492 439.903 86.0025 439.903C85.6558 439.903 85.3724 440.111 85.3724 440.365C85.3724 440.619 85.016 440.827 84.58 440.827C84.1441 440.827 83.6974 441.035 83.5871 441.289C83.4767 441.543 83.1031 441.751 82.7564 441.751C82.4097 441.751 82.1263 441.914 82.1263 442.113C82.1263 442.311 81.4537 442.756 80.6318 443.102C79.8096 443.448 78.5751 444.117 77.8882 444.589C77.2013 445.062 76.4132 445.448 76.1366 445.448C75.8604 445.448 75.6341 445.611 75.6341 445.809C75.6341 446.374 72.9119 447.376 72.2936 447.038C71.7739 446.754 71.7388 442.534 71.7388 380.283C71.7388 343.734 71.8274 313.501 71.9358 313.099C72.0443 312.697 72.4825 312.368 72.9097 312.368C73.3369 312.368 73.6865 312.16 73.6865 311.906C73.6865 311.652 74.1247 311.444 74.6603 311.444C75.1959 311.444 75.6341 311.236 75.6341 310.982C75.6341 310.728 75.9263 310.52 76.2833 310.52C76.6404 310.52 76.9326 310.312 76.9326 310.058C76.9326 309.804 77.3708 309.596 77.9064 309.596C78.442 309.596 78.8802 309.388 78.8802 309.133C78.8802 308.879 79.1724 308.671 79.5294 308.671C79.8865 308.671 80.1787 308.463 80.1787 308.209C80.1787 307.955 80.5351 307.747 80.971 307.747C81.407 307.747 81.8537 307.539 81.964 307.285C82.0744 307.031 82.448 306.823 82.7947 306.823C83.1414 306.823 83.4248 306.615 83.4248 306.361C83.4248 306.107 83.7189 305.899 84.0785 305.899C84.4379 305.899 84.9858 305.715 85.2958 305.491C85.6058 305.266 86.2612 304.85 86.752 304.567C87.2428 304.283 88.0466 303.818 88.5374 303.534C89.0282 303.251 89.6836 302.835 89.9936 302.61C90.3036 302.386 90.8515 302.202 91.2109 302.202C91.5705 302.202 91.8646 301.994 91.8646 301.74C91.8646 301.486 92.148 301.278 92.4947 301.278C92.8414 301.278 93.215 301.07 93.3254 300.816C93.6256 300.124 95.4152 300.259 95.9453 301.014Z" fill="black"/>
</svg>
