<svg width="1292" height="453" viewBox="0 0 1292 453" fill="none" xmlns="http://www.w3.org/2000/svg">
<path fill-rule="evenodd" clip-rule="evenodd" d="M897.963 0.280832C897.635 0.606108 879.929 0.767561 844.075 0.77277C808.319 0.777504 790.675 0.937946 790.675 1.25849C790.675 1.58045 720.058 1.73059 574.881 1.71828C456.195 1.70787 350.639 1.70538 340.312 1.71296L321.537 1.72676V41.2299V80.7327L320.805 81.0453C320.403 81.2172 319.416 81.7834 318.611 82.3037C317.806 82.8236 316.855 83.4122 316.498 83.611C316.14 83.8099 315.149 84.4296 314.294 84.9888C313.44 85.5475 312.442 86.0048 312.077 86.0048C311.711 86.0048 311.201 86.3126 310.942 86.689C310.684 87.0659 309.597 87.752 308.527 88.2146C307.457 88.6772 306.582 89.2216 306.582 89.4243C306.582 89.6269 306.298 89.7927 305.951 89.7927C305.604 89.7927 305.229 90.0056 305.119 90.266C305.008 90.5264 304.561 90.7396 304.124 90.7396C303.688 90.7396 303.331 90.9526 303.331 91.213C303.331 91.4734 303.047 91.6865 302.7 91.6865C302.352 91.6865 301.978 91.8996 301.868 92.16C301.757 92.4204 301.31 92.6334 300.873 92.6334C300.436 92.6334 300.08 92.8466 300.08 93.107C300.08 93.3674 299.888 93.5804 299.653 93.5804C299.418 93.5804 298.621 94.0065 297.88 94.5273C297.14 95.0481 296.386 95.4743 296.204 95.4743C296.022 95.4743 295.352 95.9005 294.715 96.4213C294.079 96.9421 293.269 97.3683 292.917 97.3683C292.565 97.3683 292.277 97.5812 292.277 97.8416C292.277 98.102 291.911 98.3151 291.464 98.3151C291.017 98.3151 290.651 98.5282 290.651 98.7886C290.651 99.049 290.367 99.2621 290.02 99.2621C289.673 99.2621 289.299 99.4752 289.188 99.7356C289.078 99.996 288.63 100.209 288.194 100.209C287.757 100.209 287.4 100.422 287.4 100.683C287.4 100.943 287.116 101.156 286.769 101.156C286.422 101.156 286.048 101.369 285.937 101.629C285.827 101.89 285.379 102.103 284.943 102.103C284.506 102.103 284.149 102.316 284.149 102.576C284.149 102.837 283.928 103.05 283.657 103.05C283.386 103.05 282.911 103.238 282.6 103.468C282.019 103.899 280.698 104.719 279.272 105.536C278.825 105.792 278.206 106.189 277.895 106.419C277.585 106.65 277.109 106.838 276.838 106.838C276.568 106.838 276.346 107.051 276.346 107.311C276.346 107.572 275.989 107.785 275.553 107.785C275.116 107.785 274.669 107.998 274.558 108.258C274.448 108.518 274.073 108.732 273.726 108.732C273.379 108.732 273.095 108.906 273.095 109.119C273.095 109.333 272.364 109.797 271.47 110.152C270.576 110.507 269.844 110.933 269.844 111.099C269.844 111.265 269.113 111.691 268.218 112.046C267.324 112.4 266.593 112.865 266.593 113.078C266.593 113.291 266.371 113.466 266.101 113.466C265.83 113.466 265.318 113.679 264.963 113.94C264.608 114.2 264.026 114.626 263.671 114.887C263.316 115.147 262.804 115.36 262.534 115.36C262.263 115.36 262.041 115.573 262.041 115.834C262.041 116.094 261.684 116.307 261.248 116.307C260.811 116.307 260.364 116.52 260.253 116.781C260.143 117.041 259.768 117.254 259.421 117.254C259.074 117.254 258.79 117.467 258.79 117.728C258.79 117.988 258.525 118.201 258.201 118.201C257.877 118.201 257.006 118.627 256.266 119.148C255.526 119.669 254.694 120.095 254.417 120.095C254.14 120.095 253.913 120.308 253.913 120.568C253.913 120.829 253.692 121.042 253.421 121.042C253.151 121.042 252.675 121.23 252.365 121.46C251.768 121.902 250.338 122.788 249.118 123.473C247.75 124.24 246.925 124.732 245.737 125.491C245.084 125.909 244.452 126.25 244.334 126.25C244.215 126.25 243.319 126.783 242.341 127.434C241.364 128.085 240.426 128.617 240.258 128.617C240.089 128.617 239.325 129.03 238.561 129.535C235.468 131.575 231.544 133.826 231.079 133.826C230.807 133.826 230.416 134.123 230.208 134.486C230.001 134.85 229.288 135.295 228.624 135.476C227.96 135.656 227.27 135.974 227.092 136.181C226.913 136.389 225.962 137.028 224.978 137.602C223.995 138.176 222.532 139.034 221.727 139.509C220.923 139.984 219.094 141.062 217.663 141.904C216.233 142.748 214.442 143.831 213.684 144.313C212.926 144.795 212.185 145.189 212.039 145.189C211.768 145.189 209.362 146.732 208.321 147.574C208.01 147.825 207.538 148.03 207.272 148.03C207.006 148.03 206.309 148.455 205.723 148.975C205.138 149.495 204.417 149.921 204.121 149.922C203.656 149.923 202.668 150.534 200.193 152.35C199.883 152.578 199.334 152.764 198.974 152.764C198.614 152.764 198.319 152.978 198.319 153.238C198.319 153.498 198.026 153.711 197.669 153.711C197.311 153.711 197.019 153.924 197.019 154.185C197.019 154.445 196.58 154.658 196.043 154.658C195.507 154.658 195.068 154.871 195.068 155.132C195.068 155.392 194.775 155.605 194.418 155.605C194.06 155.605 193.767 155.818 193.767 156.079C193.767 156.339 193.411 156.552 192.974 156.552C192.537 156.552 192.09 156.765 191.979 157.026C191.869 157.286 191.495 157.499 191.147 157.499C190.8 157.499 190.516 157.712 190.516 157.973C190.516 158.233 190.233 158.446 189.885 158.446C189.538 158.446 189.164 158.659 189.053 158.92C188.943 159.18 188.495 159.393 188.059 159.393C187.622 159.393 187.265 159.606 187.265 159.866C187.265 160.127 186.981 160.34 186.634 160.34C186.287 160.34 185.913 160.553 185.802 160.813C185.692 161.074 185.244 161.287 184.808 161.287C184.371 161.287 184.014 161.5 184.014 161.76C184.014 162.021 183.793 162.234 183.522 162.234C183.251 162.234 182.776 162.422 182.465 162.652C182.155 162.882 181.462 163.333 180.926 163.654C180.389 163.975 179.696 164.426 179.386 164.657C179.075 164.887 178.6 165.075 178.329 165.075C178.058 165.075 177.837 165.288 177.837 165.548C177.837 165.809 177.48 166.022 177.043 166.022C176.607 166.022 176.159 166.235 176.049 166.495C175.938 166.755 175.564 166.969 175.217 166.969C174.87 166.969 174.586 167.143 174.586 167.356C174.586 167.57 173.854 168.034 172.96 168.389C172.066 168.744 171.335 169.208 171.335 169.422C171.335 169.635 171.051 169.809 170.704 169.809C170.356 169.809 169.982 170.023 169.872 170.283C169.761 170.543 169.314 170.756 168.877 170.756C168.441 170.756 168.084 170.97 168.084 171.23C168.084 171.49 167.8 171.703 167.453 171.703C167.105 171.703 166.731 171.916 166.621 172.177C166.51 172.437 166.063 172.65 165.626 172.65C165.189 172.65 164.832 172.863 164.832 173.124C164.832 173.384 164.549 173.597 164.201 173.597C163.854 173.597 163.48 173.81 163.369 174.071C163.259 174.331 162.812 174.544 162.375 174.544C161.938 174.544 161.581 174.757 161.581 175.018C161.581 175.278 161.36 175.491 161.089 175.491C160.819 175.491 160.307 175.704 159.951 175.965C159.596 176.225 159.015 176.651 158.66 176.912C158.304 177.172 157.792 177.385 157.522 177.385C157.251 177.385 157.03 177.56 157.03 177.773C157.03 177.986 156.298 178.451 155.404 178.805C154.51 179.16 153.779 179.586 153.779 179.752C153.779 179.919 153.047 180.345 152.153 180.699C151.259 181.054 150.527 181.472 150.527 181.628C150.527 181.785 149.833 182.204 148.983 182.559C148.134 182.914 147.293 183.356 147.114 183.543C146.935 183.729 144.871 184.973 142.528 186.307C140.185 187.641 137.844 189.055 137.327 189.448C136.809 189.841 136.23 190.164 136.039 190.166C135.85 190.167 134.923 190.71 133.981 191.372C133.04 192.034 131.806 192.71 131.24 192.875C130.674 193.04 130.037 193.428 129.824 193.738C129.611 194.048 128.66 194.67 127.709 195.121C126.759 195.572 125.835 196.095 125.656 196.284C125.477 196.473 124.673 196.922 123.868 197.284C123.063 197.645 122.332 198.061 122.243 198.207C121.928 198.723 120.254 199.638 119.626 199.638C119.277 199.638 118.991 199.851 118.991 200.112C118.991 200.372 118.8 200.585 118.565 200.585C118.33 200.585 117.533 201.011 116.792 201.532C116.052 202.053 115.321 202.479 115.167 202.479C115.013 202.479 114.282 202.905 113.541 203.426C112.801 203.947 112.04 204.373 111.85 204.373C111.66 204.373 111.214 204.586 110.859 204.846C110.504 205.107 109.923 205.533 109.568 205.793C109.212 206.054 108.7 206.267 108.43 206.267C108.159 206.267 107.938 206.48 107.938 206.74C107.938 207.001 107.572 207.214 107.125 207.214C106.678 207.214 106.312 207.427 106.312 207.687C106.312 207.948 106.028 208.161 105.681 208.161C105.334 208.161 104.96 208.374 104.849 208.634C104.738 208.895 104.291 209.108 103.854 209.108C103.418 209.108 103.061 209.321 103.061 209.581C103.061 209.842 102.777 210.055 102.43 210.055C102.083 210.055 101.708 210.268 101.598 210.528C101.487 210.789 101.04 211.002 100.603 211.002C100.167 211.002 99.8098 211.215 99.8098 211.475C99.8098 211.735 99.5884 211.949 99.3175 211.949C99.047 211.949 98.5714 212.137 98.2609 212.367C97.9504 212.597 97.2576 213.048 96.7212 213.369C96.1847 213.69 95.4919 214.141 95.1815 214.371C94.871 214.601 94.3222 214.789 93.9623 214.789C93.6021 214.789 93.3075 215.002 93.3075 215.263C93.3075 215.523 93.0149 215.736 92.6573 215.736C92.2996 215.736 92.007 215.949 92.007 216.21C92.007 216.47 91.6501 216.683 91.2134 216.683C90.7768 216.683 90.3295 216.896 90.2189 217.157C90.1084 217.417 89.7342 217.63 89.387 217.63C89.0397 217.63 88.7559 217.843 88.7559 218.104C88.7559 218.364 88.3989 218.577 87.9623 218.577C87.5257 218.577 87.0783 218.79 86.9678 219.051C86.8572 219.311 86.4831 219.524 86.1358 219.524C85.7886 219.524 85.5048 219.699 85.5048 219.912C85.5048 220.125 84.7733 220.59 83.8792 220.945C82.9852 221.299 82.2536 221.764 82.2536 221.977C82.2536 222.19 81.9698 222.365 81.6226 222.365C81.2754 222.365 80.9012 222.578 80.7906 222.838C80.6801 223.099 80.2327 223.312 79.7961 223.312C79.3595 223.312 79.0025 223.525 79.0025 223.785C79.0025 224.046 78.7187 224.259 78.3715 224.259C78.0242 224.259 77.65 224.472 77.5395 224.732C77.429 224.993 76.9816 225.206 76.545 225.206C76.1084 225.206 75.7514 225.419 75.7514 225.679C75.7514 225.94 75.53 226.153 75.2592 226.153C74.9887 226.153 74.513 226.341 74.2025 226.571C73.6125 227.008 72.1469 227.918 71.0372 228.535C70.6796 228.734 69.8385 229.248 69.1678 229.678L67.9487 230.458V238.435C67.9487 245.271 67.8752 246.452 67.4343 246.698C67.1515 246.856 51.863 246.985 33.46 246.985H0L0 349.966L0 452.946H35.925H71.85V451.729C71.85 450.175 72.5484 449.158 73.6151 449.158C74.0748 449.158 74.4509 448.945 74.4509 448.685C74.4509 448.424 74.7435 448.211 75.1012 448.211C75.4588 448.211 75.7514 447.998 75.7514 447.738C75.7514 447.477 76.1084 447.264 76.545 447.264C76.9816 447.264 77.429 447.051 77.5395 446.791C77.65 446.53 78.0242 446.317 78.3715 446.317C78.7187 446.317 79.0025 446.104 79.0025 445.844C79.0025 445.583 79.2971 445.37 79.6573 445.37C80.0172 445.37 80.566 445.182 80.8765 444.952C81.187 444.722 81.8798 444.271 82.4162 443.95C82.9526 443.629 83.6455 443.178 83.9559 442.948C84.2664 442.718 84.7421 442.529 85.0126 442.529C85.2834 442.529 85.5048 442.316 85.5048 442.056C85.5048 441.796 85.8618 441.583 86.2984 441.583C86.735 441.583 87.1824 441.369 87.2929 441.109C87.4035 440.849 87.7776 440.636 88.1249 440.636C88.4721 440.636 88.7559 440.423 88.7559 440.162C88.7559 439.902 89.0505 439.689 89.4107 439.689C89.7706 439.689 90.3194 439.501 90.6299 439.271C90.9404 439.04 91.5968 438.614 92.0883 438.324C92.5799 438.033 93.3849 437.553 93.8764 437.258C94.368 436.963 95.1363 436.512 95.5833 436.256C96.0303 436 96.65 435.602 96.9605 435.372C97.271 435.142 97.6751 434.954 97.8581 434.954C98.0415 434.954 98.8845 434.507 99.7321 433.96C100.579 433.413 101.565 432.801 101.923 432.601C102.281 432.401 103.341 431.783 104.28 431.228C105.219 430.673 106.755 429.769 107.694 429.218C108.632 428.668 109.637 428.044 109.927 427.833C110.216 427.622 111.057 427.212 111.796 426.922C112.535 426.632 113.139 426.214 113.139 425.993C113.139 425.771 113.68 425.442 114.341 425.261C115.001 425.081 116.208 424.445 117.023 423.847C117.837 423.249 119.008 422.602 119.623 422.407C120.239 422.213 120.927 421.787 121.152 421.46C121.376 421.132 122.116 420.712 122.795 420.527C123.474 420.341 124.103 420.036 124.193 419.848C124.282 419.661 125.234 419.014 126.307 418.411C127.379 417.808 128.852 416.916 129.579 416.428C130.306 415.941 131.208 415.542 131.584 415.542C131.96 415.542 132.316 415.374 132.375 415.168C132.527 414.648 135.853 412.701 136.591 412.701C136.925 412.701 137.198 412.53 137.198 412.323C137.198 411.879 139.111 410.807 139.903 410.807C140.203 410.807 140.449 410.594 140.449 410.333C140.449 410.073 140.67 409.86 140.941 409.86C141.212 409.86 141.724 409.647 142.079 409.387C142.434 409.126 143.015 408.7 143.37 408.44C143.726 408.179 144.311 407.966 144.671 407.966C145.031 407.966 145.326 407.753 145.326 407.493C145.326 407.232 145.609 407.019 145.957 407.019C146.304 407.019 146.678 406.806 146.789 406.546C146.899 406.285 147.347 406.072 147.783 406.072C148.22 406.072 148.577 405.859 148.577 405.599C148.577 405.338 148.869 405.125 149.227 405.125C149.585 405.125 149.877 404.912 149.877 404.652C149.877 404.391 150.316 404.178 150.853 404.178C151.389 404.178 151.828 403.965 151.828 403.705C151.828 403.444 152.049 403.231 152.32 403.231C152.591 403.231 153.066 403.043 153.377 402.813C153.687 402.583 154.38 402.132 154.916 401.811C155.453 401.49 156.146 401.039 156.456 400.809C156.767 400.578 157.315 400.391 157.675 400.391C158.036 400.391 158.33 400.177 158.33 399.917C158.33 399.656 158.623 399.443 158.98 399.443C159.338 399.443 159.631 399.23 159.631 398.97C159.631 398.71 160.07 398.497 160.606 398.497C161.142 398.497 161.581 398.284 161.581 398.023C161.581 397.763 161.874 397.55 162.232 397.55C162.589 397.55 162.882 397.337 162.882 397.076C162.882 396.816 163.321 396.603 163.857 396.603C164.394 396.603 164.832 396.39 164.832 396.129C164.832 395.869 165.125 395.656 165.483 395.656C165.84 395.656 166.133 395.443 166.133 395.182C166.133 394.922 166.427 394.709 166.788 394.709C167.148 394.709 167.696 394.521 168.007 394.291C168.317 394.061 168.973 393.635 169.465 393.344C169.957 393.053 170.762 392.577 171.253 392.286C171.745 391.995 172.401 391.569 172.712 391.339C173.022 391.109 173.498 390.921 173.768 390.921C174.039 390.921 174.261 390.708 174.261 390.448C174.261 390.187 174.555 389.974 174.915 389.974C175.275 389.974 175.824 389.786 176.135 389.556C176.445 389.326 177.065 388.928 177.512 388.672C177.959 388.416 178.69 387.994 179.137 387.734C179.584 387.473 180.316 387.047 180.763 386.787C182.226 385.934 183.178 385.349 184.742 384.34C185.59 383.793 186.403 383.346 186.55 383.346C186.698 383.346 187.424 382.919 188.164 382.399C188.904 381.878 189.736 381.452 190.013 381.452C190.29 381.452 190.516 381.285 190.516 381.081C190.516 380.878 191.211 380.421 192.061 380.066C192.91 379.711 193.751 379.266 193.93 379.078C194.109 378.89 195.06 378.306 196.043 377.781C198.612 376.409 205.403 372.459 206.956 371.434C207.683 370.954 208.424 370.562 208.602 370.562C208.78 370.562 209.671 370.038 210.582 369.398C211.493 368.758 212.619 368.095 213.082 367.926C213.546 367.756 214.469 367.215 215.132 366.722C215.795 366.23 216.499 365.827 216.696 365.827C216.892 365.827 217.659 365.401 218.399 364.88C219.14 364.359 219.972 363.933 220.249 363.933C220.525 363.933 220.752 363.72 220.752 363.46C220.752 363.199 221.191 362.986 221.727 362.986C222.264 362.986 222.703 362.807 222.703 362.589C222.703 362.017 224.22 361.092 225.156 361.092C225.595 361.092 225.954 360.879 225.954 360.619C225.954 360.358 226.246 360.145 226.604 360.145C226.962 360.145 227.254 359.971 227.254 359.758C227.254 359.544 227.986 359.08 228.88 358.725C229.774 358.37 230.505 357.944 230.505 357.778C230.505 357.612 231.237 357.186 232.131 356.831C233.025 356.476 233.756 356.012 233.756 355.798C233.756 355.585 234.113 355.411 234.55 355.411C234.987 355.411 235.434 355.198 235.545 354.937C235.655 354.677 236.029 354.464 236.377 354.464C236.724 354.464 237.008 354.251 237.008 353.99C237.008 353.73 237.296 353.517 237.648 353.517C238 353.517 238.809 353.091 239.446 352.57C240.082 352.049 240.883 351.623 241.225 351.623C241.566 351.623 241.936 351.41 242.047 351.149C242.157 350.889 242.532 350.676 242.879 350.676C243.226 350.676 243.51 350.463 243.51 350.202C243.51 349.942 243.804 349.729 244.165 349.729C244.525 349.729 245.11 349.516 245.465 349.256C245.82 348.995 246.401 348.569 246.756 348.308C247.112 348.048 247.624 347.835 247.894 347.835C248.165 347.835 248.387 347.622 248.387 347.362C248.387 347.101 248.743 346.888 249.18 346.888C249.617 346.888 250.064 346.675 250.175 346.415C250.285 346.154 250.659 345.941 251.007 345.941C251.354 345.941 251.638 345.728 251.638 345.468C251.638 345.207 251.995 344.994 252.431 344.994C252.868 344.994 253.315 344.781 253.426 344.521C253.536 344.26 253.911 344.047 254.258 344.047C254.605 344.047 254.889 343.873 254.889 343.66C254.889 343.446 255.62 342.982 256.514 342.627C257.408 342.272 258.14 341.808 258.14 341.594C258.14 341.381 258.424 341.206 258.771 341.206C259.118 341.206 259.492 340.993 259.603 340.733C259.713 340.473 260.161 340.26 260.597 340.26C261.034 340.26 261.391 340.085 261.391 339.872C261.391 339.658 262.123 339.194 263.017 338.839C263.911 338.485 264.642 338.058 264.642 337.892C264.642 337.726 265.374 337.3 266.268 336.945C267.162 336.59 267.893 336.164 267.893 335.998C267.893 335.832 268.625 335.406 269.519 335.051C270.413 334.697 271.144 334.232 271.144 334.019C271.144 333.806 271.428 333.631 271.775 333.631C272.123 333.631 272.497 333.418 272.607 333.158C272.718 332.897 273.165 332.684 273.602 332.684C274.039 332.684 274.396 332.471 274.396 332.211C274.396 331.95 274.617 331.737 274.888 331.737C275.158 331.737 275.634 331.541 275.944 331.301C276.255 331.062 277.387 330.39 278.46 329.807C279.532 329.225 280.549 328.569 280.719 328.349C280.889 328.129 281.22 327.949 281.454 327.949C281.849 327.949 284.223 326.546 285.526 325.543C285.837 325.304 286.246 325.108 286.436 325.108C286.626 325.108 287.387 324.682 288.127 324.161C288.867 323.641 289.593 323.215 289.741 323.215C289.888 323.215 290.628 322.812 291.386 322.319C294.305 320.422 298.813 318.006 299.432 318.006C299.788 318.006 300.08 317.839 300.08 317.634C300.08 317.429 301.726 316.335 303.737 315.205C305.749 314.074 307.99 312.75 308.716 312.263C309.443 311.776 310.184 311.378 310.363 311.378C310.541 311.378 311.457 310.837 312.399 310.175C313.341 309.513 314.575 308.84 315.142 308.68C315.709 308.519 316.246 308.262 316.335 308.107C316.66 307.547 317.964 306.643 318.448 306.643C318.722 306.643 319.199 306.455 319.51 306.225C319.82 305.995 320.513 305.543 321.049 305.222C321.586 304.901 322.279 304.45 322.589 304.22C322.915 303.979 527.926 303.802 807.577 303.802H1292V237.335C1292 171.265 1292 170.865 1291.35 170.619C1290.71 170.375 1290.7 169.973 1290.7 141.947C1290.7 123.508 1290.81 113.419 1291.02 113.229C1291.24 113.037 1291.35 93.891 1291.35 57.3319V1.72676L1236.89 1.72676C1200.81 1.72676 1182.44 1.56721 1182.44 1.2533C1182.44 0.940337 1101.31 0.262605 1101.31 0.262605C1100.5 0.0772287 1099.72 0.0772535 1098.51 0.0772287C1097.5 0.0772287 1090.19 0.418591 1082.14 0.418117C1074.09 0.417644 1067.14 0.433715 1066.7 0.454548C1066.25 0.474907 1058.68 0.461277 1049.87 0.423873C1041.07 0.386942 1032.91 0.35802 1031.75 0.359914C964.86 0.468339 903.321 0.350841 901.214 0.111264C899.499 -0.0838067 898.266 -0.0193493 897.963 0.280832ZM650.872 58.6618C650.875 93.6249 650.766 111.572 650.552 111.572C650.373 111.572 650.226 110.933 650.226 110.152V108.732H646.65H643.074V111.336V113.94H646.982H650.891L650.803 123.054L650.714 132.168H634.946H619.178V123.172V114.176L623.323 114.044L627.469 113.911V111.321V108.732H623.411C619.472 108.732 619.348 108.7 619.177 107.666C619.079 107.081 619.04 84.2293 619.089 56.8863L619.178 7.17171L634.702 7.04865L650.226 6.92603L650.231 5.62822C650.235 4.61688 650.306 4.48708 650.552 5.04104C650.75 5.48847 650.869 25.3194 650.872 58.6618ZM850.092 33.3311L850.176 60.4374H852.124H854.072L854.077 34.278C854.079 19.8902 854.17 7.63906 854.277 7.05337L854.473 5.98806H875.991C892.293 5.98806 897.602 6.12572 897.898 6.55611C898.464 7.38137 898.464 130.065 897.898 130.89C897.602 131.32 892.323 131.458 876.127 131.458C855.321 131.458 854.737 131.434 854.409 130.543C854.19 129.945 854.072 121.209 854.072 105.448V81.2701H852.122H850.171V106.077C850.171 128.26 850.117 130.914 849.657 131.171C849.374 131.329 841.766 131.458 832.751 131.458H816.359V134.062V136.666H856.979C883.708 136.666 897.668 136.828 897.8 137.14C897.911 137.4 899.236 137.613 900.745 137.613C902.358 137.613 903.49 137.418 903.49 137.14C903.49 136.85 905.061 136.666 907.554 136.666H911.618V133.826V130.985H907.554H903.49V68.7321V6.47957L904.221 6.22276C904.624 6.0812 932.969 6.02407 967.212 6.09556L1029.47 6.22469V62.0945V117.964L1012.32 118.087L995.172 118.209V120.809V123.409H1012.05C1026.97 123.409 1029 123.496 1029.45 124.153C1029.86 124.75 1029.96 126.063 1029.96 130.782V136.666H1039.22H1048.49V134.062V131.458H1041.66C1037.31 131.458 1034.62 131.271 1034.26 130.945C1033.73 130.461 1033.7 126.921 1033.78 69.7487C1033.82 36.3732 1033.94 8.37101 1034.04 7.52207L1034.22 5.97812L1048.75 6.10178L1063.28 6.22469L1063.37 59.3721L1063.45 112.519H1056.29H1049.14V115.605V118.69L1058.16 118.564L1067.18 118.438L1067.35 62.3313C1067.44 31.4727 1067.55 6.1717 1067.59 6.10636C1067.64 6.04102 1074.11 5.98806 1081.98 5.98806H1096.28V59.7272V113.466H1092.12C1089.32 113.466 1087.83 113.652 1087.57 114.034C1087.35 114.347 1087.18 115.732 1087.18 117.112V119.621H1092.05H1096.92L1097.01 128.025L1097.09 136.43L1111.16 136.553L1125.22 136.676V123.938C1125.22 112.76 1125.28 111.165 1125.73 110.913C1126.01 110.755 1138 110.625 1152.37 110.625C1175.15 110.625 1178.55 110.716 1178.98 111.336C1179.38 111.93 1180.82 112.046 1187.78 112.046H1196.09V109.452V106.858L1189.67 106.729L1183.25 106.601L1183.17 57.2414L1183.08 7.88191H1206.98H1230.88V57.3599V106.838H1224.7H1218.52V109.442V112.046H1224.7C1228.6 112.046 1230.88 112.22 1230.88 112.519C1230.88 112.824 1234.18 112.993 1240.14 112.993H1249.41V109.915V106.838H1242.42H1235.43L1235.51 57.478L1235.59 8.11872L1261.36 7.99742L1287.12 7.8763V57.3571V106.838H1273.99C1262.32 106.838 1260.84 106.921 1260.66 107.587C1260.55 107.999 1260.46 122.911 1260.46 140.725V173.113L1274.2 173.237L1287.94 173.36L1288.03 234.675C1288.07 268.398 1288.03 296.469 1287.94 297.055L1287.76 298.12H1253.61C1224.44 298.12 1219.39 298.021 1218.99 297.444C1218.59 296.865 1218.52 287.894 1218.52 234.946V173.124H1230.88H1243.23V170.046V166.969H1218.04H1192.84V170.04V173.11L1203.33 173.236L1213.81 173.36L1213.9 234.675C1213.95 268.398 1213.91 296.469 1213.81 297.055L1213.64 298.12H1180.64H1147.65V235.622V173.124H1158.54H1169.43V170.046V166.969H1146.02H1122.62V170.046V173.124H1133.02H1143.42V235.622V298.12H1110.46C1080.7 298.12 1077.48 298.048 1077.3 297.371C1077.04 296.393 1077.04 174.852 1077.3 173.873C1077.47 173.211 1078.72 173.124 1088.03 173.124H1098.56V170.046V166.969H1071.25H1043.94V170.041V173.114L1058.49 173.237L1073.04 173.36L1073.13 234.675C1073.17 268.398 1073.14 296.469 1073.04 297.055L1072.86 298.12H1038.41H1003.95V235.622V173.124H1016.47H1028.98V170.046V166.969H1006.55H984.118V170.038V173.107L991.839 173.234L999.561 173.36V235.622V297.884L977.216 298.005L954.871 298.127L954.694 297.059C954.597 296.471 954.557 268.398 954.606 234.675L954.695 173.36L963.229 173.234L971.764 173.108V170.787C971.764 166.613 973.099 166.969 957.424 166.969H943.479V170.03V173.091L946.811 173.226L950.143 173.36L950.233 234.675C950.282 268.398 950.242 296.469 950.145 297.055L949.969 298.12H937.295H924.622V235.622V173.124H928.523H932.425V170.046V166.969H922.509H912.593V170.046V173.124H916.494H920.396V235.622V298.12H907.856C897.421 298.12 895.237 298.007 894.851 297.444C894.453 296.865 894.387 287.932 894.387 235.233C894.387 179.558 894.436 173.671 894.901 173.411C895.184 173.253 896.939 173.124 898.802 173.124H902.189V170.046V166.969H861.875H821.561V170.046V173.124H856.023H890.485V234.946C890.485 287.894 890.419 296.865 890.021 297.444C889.623 298.023 883.576 298.12 847.953 298.12C810.317 298.12 806.331 298.049 806.153 297.371C806.044 296.959 805.956 267.45 805.956 231.796V166.969H800.266H794.577V170.03V173.092L798.072 173.226L801.567 173.36L801.656 234.675C801.705 268.398 801.666 296.469 801.568 297.055L801.392 298.12H788.881H776.37V235.622V173.124H780.287H784.204L784.107 170.165L784.011 167.205L778.24 167.076C775.066 167.005 772.438 167.005 772.401 167.076C772.364 167.147 772.254 172.852 772.158 179.752L771.981 192.299L750.443 192.421L728.904 192.543V195.144V197.744H750.001C768.94 197.744 771.119 197.821 771.296 198.493C771.405 198.905 771.494 221.153 771.494 247.932C771.494 274.712 771.405 296.959 771.296 297.371C771.119 298.047 768.293 298.12 742.663 298.12C718.452 298.12 714.158 298.02 713.763 297.444C713.365 296.864 713.298 287.357 713.298 230.921V165.075H693.125H672.952L673.049 167.797L673.147 170.52L690.836 170.642C703.24 170.728 708.655 170.922 708.961 171.292C709.635 172.107 709.607 296.462 708.933 297.444C708.535 298.024 702.098 298.12 663.939 298.12C623.634 298.12 619.391 298.049 619.213 297.371C619.104 296.959 619.016 268.542 619.016 234.221C619.016 182.592 619.091 171.729 619.452 171.292C619.758 170.922 625.257 170.728 637.902 170.642L655.916 170.52L656.013 167.797L656.111 165.075H620.804H585.496L585.594 167.797L585.691 170.52L600.24 170.643L614.789 170.766V234.443V298.12H572.199H529.609V234.439V170.756H546.028H562.446V167.915V165.075H541.314H520.181V167.915V170.756H522.62H525.058V234.439V298.12H458.444C398.002 298.12 391.813 298.051 391.634 297.371C391.451 296.679 391.336 171.371 391.518 171.115C391.562 171.052 414.495 170.892 442.479 170.76L493.359 170.52V167.915V165.312L428.743 165.192L364.127 165.072V167.915V170.756H375.668H387.21V234.439V298.12H356.487H325.763V234.439V170.756H336.98H348.196V167.915V165.075H336.69C326.497 165.075 325.16 164.989 324.986 164.326C324.729 163.352 324.736 117.349 324.993 115.952C325.188 114.895 325.236 114.887 331.328 114.887H337.468V112.283V109.679H331.614H325.761L325.843 58.425L325.926 7.17171H342.344H358.762L358.845 58.425L358.928 109.679H352.749H346.571V112.283V114.887H361.689H376.806V112.283V109.679H369.978H363.149L363.231 58.425L363.314 7.17171L375.638 7.04776C386.761 6.93555 388.021 7.00023 388.562 7.71281C389.138 8.47225 389.161 10.9534 389.161 73.2945V138.087H408.992H428.824V135.25V132.413L411.024 132.291L393.224 132.168L393.142 70.4706C393.086 28.4798 393.167 8.47955 393.397 7.85409C393.728 6.9545 394.371 6.93493 423.77 6.93493C440.289 6.93493 454.036 7.06419 454.319 7.22233C454.784 7.48227 454.833 13.4249 454.833 69.6701C454.833 125.915 454.784 131.858 454.319 132.118C454.036 132.276 451.542 132.405 448.776 132.405H443.747L443.845 135.128L443.942 137.85L449.632 138.087C452.761 138.217 463.989 138.252 474.584 138.164L493.847 138.004V135.209V132.414L476.535 132.291L459.222 132.168L459.133 70.6171C459.084 36.7638 459.124 8.58593 459.221 8.00025L459.397 6.93493H488.837C513.918 6.93493 518.346 7.03531 518.741 7.61152C519.139 8.19058 519.206 17.1554 519.206 70.0593C519.206 125.95 519.157 131.858 518.692 132.118C518.409 132.276 515.995 132.405 513.327 132.405H508.477V135.195V137.985L514.632 138.154C518.017 138.247 525.186 138.247 530.563 138.154L540.338 137.985V135.195V132.405H532.059C524.207 132.405 523.763 132.358 523.444 131.49C523.216 130.871 523.11 110.748 523.118 69.5829C523.126 19.6188 523.206 8.44257 523.56 7.76361C523.967 6.98143 526.526 6.93493 569.216 6.93493C613.596 6.93493 614.447 6.95201 614.778 7.85066C615.142 8.84259 615.279 130.283 614.917 131.656C614.739 132.332 611.529 132.405 581.918 132.405H549.116V134.981C549.116 136.398 549.242 137.67 549.395 137.808C549.682 138.066 578.72 138.133 675.016 138.096L730.529 138.075V135.24V132.405H723.249C716.91 132.405 715.943 132.308 715.772 131.656C715.663 131.244 715.574 125.918 715.574 119.819V108.732H685.337H655.1L655.183 57.9516L655.266 7.17171H722.889H790.513L790.595 69.7884L790.678 132.405H773.283H755.888V135.246V138.087H775.73C793.068 138.087 795.596 137.997 795.759 137.377C795.887 136.895 796.405 136.666 797.375 136.666H798.803V134.062C798.803 131.539 798.776 131.458 797.909 131.452C797.418 131.448 796.686 131.317 796.284 131.16L795.552 130.874V68.7468C795.552 34.5767 795.651 6.47628 795.771 6.3011C795.891 6.12591 808.144 6.03728 822.999 6.10357L850.008 6.22469L850.092 33.3311ZM1178.78 55.5843L1178.86 104.944H1150.09H1121.32V117.491C1121.32 125.54 1121.2 130.038 1120.99 130.038C1120.81 130.038 1120.67 130.361 1120.67 130.755C1120.67 131.383 1119.45 131.457 1110.99 131.347L1101.32 131.221L1101.24 69.1965C1101.19 35.0828 1101.22 6.90472 1101.31 6.57802C1101.43 6.1055 1101.31 0.262605 1101.31 0.262605C1101.35 2.94592 1148 2.36781 1178.98 2.36781L1178.78 55.5843ZM366.728 58.3067V106.364H376.156H385.584V58.3067V10.2494H376.156H366.728V58.3067ZM384.609 13.0901V15.4574H376.338C371.174 15.4574 367.991 15.6355 367.866 15.931C367.734 16.2421 370.572 16.4044 376.137 16.4044H384.609V18.0616V19.7187L376.075 19.829L367.54 19.9389L376.075 20.0734L384.609 20.2078V22.3309V24.4534L376.075 24.5638L367.54 24.6737L376.075 24.8081L384.609 24.9426V27.3023V29.6616H376.156C370.737 29.6616 367.703 29.8317 367.703 30.1352C367.703 30.4387 370.744 30.6086 376.177 30.6086H384.65L384.548 32.1474L384.446 33.6861L375.993 33.9348L367.54 34.1839L376.075 34.2899L384.609 34.3964V36.527V38.6575H376.319C371.008 38.6575 368.028 38.8276 368.028 39.1311C368.028 39.4346 371.008 39.6045 376.319 39.6045H384.609V41.2618V42.9189L376.075 43.0253L367.54 43.1315L375.993 43.3805L384.446 43.6292L384.548 45.1678L384.65 46.7066H376.358C371.181 46.7066 367.991 46.8847 367.866 47.1802C367.734 47.4912 370.572 47.6536 376.137 47.6536H384.609V50.021V52.3883L376.075 52.4987L367.54 52.6085L376.075 52.743L384.609 52.8775V54.527V56.1761H376.137C370.572 56.1761 367.734 56.3384 367.866 56.6495C367.991 56.9449 371.174 57.1231 376.338 57.1231H384.609V58.7802V60.4374H376.338C371.174 60.4374 367.991 60.6154 367.866 60.9108C367.734 61.2219 370.572 61.3843 376.137 61.3843H384.609V63.5149V65.6456L376.075 65.7559L367.54 65.8656L376.075 66.0002L384.609 66.1347V67.7842V69.4333H376.137C370.572 69.4333 367.734 69.5957 367.866 69.9067C367.991 70.2022 371.181 70.3803 376.357 70.3803H384.648L384.547 72.1559L384.446 73.9314L375.993 74.1799L367.54 74.429L376.075 74.535L384.609 74.6415V76.7721V78.9028L376.075 79.0131L367.54 79.1228L376.075 79.2574L384.609 79.3919V81.2781V83.1639H376.156C370.737 83.1639 367.703 83.334 367.703 83.6375C367.703 83.941 370.744 84.111 376.177 84.111H384.65L384.548 85.6499L384.446 87.1885L375.993 87.4371L367.54 87.6862L376.075 87.7922L384.609 87.8987V90.0293V92.16L376.075 92.2665L367.54 92.3725L375.993 92.6216L384.446 92.8702L384.547 94.6458L384.648 96.4213H376.176C370.744 96.4213 367.703 96.5913 367.703 96.8948C367.703 97.1983 370.737 97.3683 376.156 97.3683H384.609V99.2621V101.156H376.156C370.737 101.156 367.703 101.326 367.703 101.629C367.703 101.933 370.737 102.103 376.156 102.103H384.609V103.997V105.891L376.4 105.876C370.089 105.864 368.059 105.715 367.622 105.232C367.087 104.64 367.053 101.843 367.053 58.3067C367.053 14.7705 367.087 11.9733 367.622 11.3819C368.059 10.8985 370.089 10.7493 376.4 10.7379L384.609 10.7228V13.0901ZM625.193 58.3067V104.47H634.946H644.7V58.3067V12.1432H634.946H625.193V58.3067ZM1072.55 60.2006V108.258H1081.98H1091.41V60.2006V12.1432H1081.98H1072.55V60.2006ZM643.724 14.7473V16.878L635.19 16.9769L626.656 17.0763L635.109 17.3604C639.758 17.5167 643.598 17.6846 643.643 17.7344C643.687 17.7841 643.724 18.6771 643.724 19.7187V21.6126L635.19 21.7229L626.656 21.8328L635.19 21.9672L643.724 22.1017V24.2248V26.3473L635.19 26.4578L626.656 26.5675L635.19 26.702L643.724 26.8364V28.9596V31.082H635.434C630.124 31.082 627.143 31.252 627.143 31.5555C627.143 31.859 630.124 32.0291 635.434 32.0291H643.724V33.6861V35.3434H635.453C630.29 35.3434 627.106 35.5214 626.981 35.8168C626.849 36.1279 629.693 36.2902 635.271 36.2902H643.762L643.661 38.3026L643.562 40.3148L635.109 40.5634L626.656 40.8125L635.19 40.9185L643.724 41.025V42.9189V44.8127H635.271C629.853 44.8127 626.818 44.9826 626.818 45.2861C626.818 45.5896 629.853 45.7597 635.271 45.7597H643.724V47.1802V48.6006H635.252C629.687 48.6006 626.849 48.763 626.981 49.074C627.106 49.3695 630.29 49.5475 635.453 49.5475H643.724V51.4415V53.3352H635.469C628.43 53.3352 627.185 53.4398 627.026 54.0454C626.863 54.6657 627.91 54.7558 635.281 54.7558H643.724V56.4129V58.0699L635.19 58.1803L626.656 58.2902L635.19 58.4246L643.724 58.5591V60.2086V61.8578H635.252C629.687 61.8578 626.849 62.0202 626.981 62.3313C627.106 62.6267 630.295 62.8047 635.471 62.8047H643.76L643.661 65.0536L643.562 67.3027L635.109 67.5513L626.656 67.8004L635.19 67.9064L643.724 68.0129V69.6701V71.3272L635.19 71.4376L626.656 71.5474L635.19 71.6818L643.724 71.8163V73.7026V75.5885H635.453C630.29 75.5885 627.106 75.7664 626.981 76.0619C626.849 76.373 629.693 76.5353 635.271 76.5353H643.762L643.661 78.5477L643.562 80.56L635.109 80.8085L626.656 81.0576L635.21 81.1636L643.766 81.2701L643.663 82.809L643.562 84.3477L635.109 84.5844C630.46 84.7146 626.875 84.9798 627.143 85.1739C627.412 85.368 631.215 85.5811 635.596 85.6473L643.562 85.768L643.663 87.307L643.766 88.8457H635.292C629.859 88.8457 626.818 89.0156 626.818 89.3191C626.818 89.6226 629.853 89.7927 635.271 89.7927H643.724V91.6865V93.5804H635.271C629.853 93.5804 626.818 93.7504 626.818 94.0539C626.818 94.3574 629.853 94.5273 635.271 94.5273H643.724V96.4213V98.3151L635.19 98.4255L626.656 98.5352L635.19 98.6697L643.724 98.8042V100.927V103.05H634.962H626.199L626.204 57.8333L626.209 12.6167H634.967H643.724V14.7473ZM1090.73 13.7384C1090.96 14.3549 1091.09 15.2606 1091.03 15.7506C1090.92 16.5887 1090.39 16.6559 1082.14 16.8898L1073.36 17.1379L1081.65 17.2596C1090.4 17.3884 1091.08 17.5565 1091.08 19.5948C1091.08 21.4598 1090.51 21.5919 1081.79 21.7311L1073.36 21.8659L1082.22 21.9763L1091.08 22.086V23.98C1091.08 25.0217 1091.04 25.9184 1091 25.9728C1090.95 26.0272 1086.97 26.1939 1082.14 26.343L1073.36 26.6143L1081.86 26.7177C1091.11 26.8304 1091.23 26.8667 1091.02 29.5149L1090.92 30.8453L1082.22 30.9713C1076.79 31.0504 1073.52 31.2728 1073.52 31.563C1073.52 31.8561 1076.59 32.0291 1081.79 32.0291C1086.33 32.0291 1090.28 32.1584 1090.57 32.3165C1090.87 32.487 1091.08 33.1611 1091.08 33.9736V35.3434H1082.3C1076.67 35.3434 1073.52 35.5128 1073.52 35.8168C1073.52 36.1208 1076.67 36.2902 1082.3 36.2902H1091.08V38.1287C1091.08 39.6353 1090.95 40.0192 1090.35 40.2531C1089.95 40.4099 1085.96 40.5894 1081.49 40.6514L1073.36 40.7646L1081.94 41.0131C1089.65 41.2366 1090.56 41.346 1090.88 42.0903C1091.14 42.6945 1091.14 43.1433 1090.88 43.7474C1090.56 44.4964 1089.71 44.5883 1082.02 44.7024C1076.73 44.781 1073.52 45.0041 1073.52 45.2943C1073.52 45.5878 1076.77 45.7597 1082.3 45.7597H1091.08V47.1802V48.6006H1082.3C1076.76 48.6006 1073.52 48.7724 1073.52 49.0665C1073.52 49.3567 1076.79 49.5792 1082.22 49.6582L1090.92 49.7843L1091.02 51.5598L1091.12 53.3352H1082.32C1074.72 53.3352 1073.52 53.4318 1073.52 54.0454C1073.52 54.6581 1074.66 54.7558 1081.79 54.7558C1086.33 54.7558 1090.28 54.8851 1090.57 55.0432C1090.98 55.2757 1091.31 57.3119 1091 57.6954C1090.95 57.7499 1086.97 57.9165 1082.14 58.0656L1073.36 58.337L1081.71 58.4402C1086.3 58.497 1090.28 58.6727 1090.57 58.8308C1090.87 59.0013 1091.08 59.6756 1091.08 60.488V61.8578H1082.3C1076.67 61.8578 1073.52 62.0273 1073.52 62.3313C1073.52 62.6343 1076.5 62.8047 1081.79 62.8047C1086.33 62.8047 1090.28 62.934 1090.57 63.0921C1091.27 63.4861 1091.23 66.0822 1090.51 66.8804C1090.08 67.3572 1087.94 67.5389 1081.65 67.6312L1073.36 67.753L1082.14 68.001L1090.92 68.2496L1091.03 69.3798C1091.09 70.0015 1090.94 70.6904 1090.7 70.9115C1090.46 71.1321 1086.46 71.3637 1081.81 71.4267L1073.36 71.5403L1081.94 71.7889C1089.65 72.0124 1090.56 72.1216 1090.88 72.8659C1091.14 73.4701 1091.14 73.919 1090.88 74.5232C1090.56 75.2722 1089.71 75.364 1082.02 75.4781C1076.73 75.5567 1073.52 75.7798 1073.52 76.07C1073.52 76.3636 1076.77 76.5353 1082.3 76.5353H1091.08V78.4293C1091.08 79.471 1091.04 80.3644 1091 80.4146C1090.95 80.4648 1086.97 80.6329 1082.14 80.7882L1073.36 81.0707L1082.22 81.1703L1091.08 81.2701V82.6351C1091.08 83.6507 1090.89 84.0736 1090.35 84.2861C1089.95 84.4429 1085.99 84.5744 1081.55 84.5777C1076.26 84.582 1073.55 84.7474 1073.69 85.058C1073.81 85.352 1076.86 85.5338 1081.75 85.538C1086.08 85.5414 1089.95 85.6758 1090.37 85.8363C1090.94 86.0621 1091.09 86.411 1091.02 87.3688L1090.92 88.609L1082.22 88.7348C1076.79 88.8139 1073.52 89.0365 1073.52 89.3267C1073.52 89.6207 1076.76 89.7927 1082.3 89.7927H1091.08V91.6865V93.5804H1082.3C1076.67 93.5804 1073.52 93.7499 1073.52 94.0539C1073.52 94.3574 1076.54 94.5273 1081.91 94.5273C1090.43 94.5273 1091.08 94.6547 1091.08 96.3128C1091.08 98.1655 1090.43 98.3119 1081.76 98.4184L1073.36 98.5216L1082.14 98.7929C1086.97 98.9421 1090.96 99.1087 1091.02 99.1631C1091.07 99.2176 1091.07 100.061 1091.02 101.038L1090.92 102.813L1082.14 103.062L1073.36 103.31L1081.49 103.423C1085.96 103.485 1089.95 103.665 1090.35 103.822C1090.89 104.034 1091.08 104.457 1091.08 105.473V106.838H1082.01H1072.95V60.5827C1072.95 27.0504 1073.05 14.0929 1073.31 13.4722C1073.65 12.6834 1074.33 12.6167 1082 12.6167H1090.32L1090.73 13.7384ZM320.887 193.403V298.907L318.914 300.19C317.829 300.895 316.512 301.596 315.988 301.749C315.464 301.902 315.035 302.193 315.035 302.397C315.035 302.601 314.303 303.041 313.409 303.375C312.515 303.708 311.784 304.154 311.784 304.365C311.784 304.576 311.558 304.749 311.283 304.749C311.008 304.749 310.209 305.175 309.508 305.696C308.807 306.217 307.862 306.643 307.408 306.643C306.953 306.643 306.582 306.804 306.582 307.001C306.582 307.421 305.351 308.236 303.412 309.099C302.652 309.437 302.03 309.875 302.03 310.072C302.03 310.27 301.746 310.431 301.399 310.431C301.052 310.431 300.678 310.644 300.567 310.904C300.457 311.165 300.009 311.378 299.573 311.378C299.136 311.378 298.779 311.591 298.779 311.851C298.779 312.111 298.495 312.324 298.148 312.324C297.801 312.324 297.427 312.538 297.316 312.798C297.206 313.058 296.758 313.272 296.322 313.272C295.885 313.272 295.528 313.485 295.528 313.745C295.528 314.006 295.307 314.219 295.036 314.219C294.558 314.219 294.213 314.416 292.688 315.565C292.288 315.866 291.666 316.112 291.306 316.112C290.946 316.112 290.651 316.325 290.651 316.586C290.651 316.846 290.367 317.059 290.02 317.059C289.673 317.059 289.299 317.272 289.188 317.533C289.078 317.793 288.63 318.006 288.194 318.006C287.757 318.006 287.4 318.219 287.4 318.48C287.4 318.74 287.034 318.953 286.587 318.953C286.14 318.953 285.775 319.166 285.775 319.427C285.775 319.687 285.553 319.9 285.282 319.9C285.012 319.9 284.536 320.088 284.226 320.318C283.644 320.749 282.323 321.57 280.898 322.386C280.451 322.642 279.831 323.04 279.521 323.27C279.21 323.5 278.661 323.688 278.301 323.688C277.941 323.688 277.647 323.901 277.647 324.161C277.647 324.422 277.363 324.635 277.016 324.635C276.668 324.635 276.294 324.848 276.184 325.108C276.073 325.369 275.626 325.582 275.189 325.582C274.753 325.582 274.396 325.795 274.396 326.055C274.396 326.316 274.103 326.529 273.745 326.529C273.388 326.529 273.095 326.742 273.095 327.002C273.095 327.263 272.656 327.476 272.12 327.476C271.583 327.476 271.144 327.689 271.144 327.949C271.144 328.21 270.852 328.423 270.494 328.423C270.137 328.423 269.844 328.636 269.844 328.896C269.844 329.157 269.405 329.37 268.869 329.37C268.332 329.37 267.893 329.583 267.893 329.843C267.893 330.103 267.61 330.316 267.262 330.316C266.915 330.316 266.541 330.53 266.43 330.79C266.32 331.05 265.872 331.264 265.436 331.264C264.999 331.264 264.642 331.477 264.642 331.737C264.642 331.997 264.358 332.211 264.011 332.211C263.664 332.211 263.29 332.424 263.179 332.684C263.069 332.944 262.621 333.158 262.185 333.158C261.748 333.158 261.391 333.371 261.391 333.631C261.391 333.891 261.17 334.104 260.899 334.104C260.628 334.104 260.116 334.317 259.761 334.578C259.406 334.838 258.825 335.264 258.47 335.525C258.114 335.785 257.602 335.998 257.332 335.998C257.061 335.998 256.839 336.211 256.839 336.472C256.839 336.732 256.545 336.945 256.185 336.945C255.825 336.945 255.276 337.133 254.966 337.363C254.655 337.593 253.962 338.045 253.426 338.366C252.889 338.687 252.197 339.138 251.886 339.368C251.576 339.598 251.177 339.786 251 339.786C250.823 339.786 249.72 340.425 248.549 341.206C247.378 341.988 246.305 342.627 246.164 342.627C246.023 342.627 245.302 343.053 244.562 343.574C243.822 344.095 243.057 344.521 242.862 344.521C242.668 344.521 241.959 344.929 241.287 345.428C240.615 345.928 239.524 346.484 238.862 346.665C238.2 346.846 237.658 347.168 237.658 347.382C237.658 347.596 237.328 347.905 236.926 348.068C236.189 348.366 234.819 349.114 232.131 350.685C228.033 353.08 225.33 354.692 224.088 355.482C223.33 355.964 222.415 356.358 222.056 356.358C221.696 356.358 221.402 356.528 221.402 356.736C221.402 356.944 220.854 357.384 220.183 357.714C218.824 358.383 218.347 358.663 216.123 360.098C215.275 360.645 214.288 361.092 213.928 361.092C213.568 361.092 213.274 361.305 213.274 361.566C213.274 361.826 212.982 362.039 212.624 362.039C212.266 362.039 211.974 362.252 211.974 362.513C211.974 362.773 211.679 362.986 211.319 362.986C210.959 362.986 210.41 363.182 210.1 363.421C208.718 364.486 206.411 365.827 205.963 365.827C205.693 365.827 205.472 366.002 205.472 366.215C205.472 366.428 204.74 366.893 203.846 367.247C202.952 367.602 202.22 368.066 202.22 368.28C202.22 368.493 201.782 368.668 201.245 368.668C200.709 368.668 200.27 368.881 200.27 369.141C200.27 369.402 199.977 369.615 199.62 369.615C199.262 369.615 198.969 369.828 198.969 370.088C198.969 370.349 198.612 370.562 198.176 370.562C197.739 370.562 197.292 370.775 197.181 371.035C197.071 371.296 196.696 371.509 196.349 371.509C196.002 371.509 195.718 371.722 195.718 371.982C195.718 372.243 195.361 372.456 194.925 372.456C194.488 372.456 194.041 372.669 193.93 372.929C193.82 373.189 193.445 373.403 193.098 373.403C192.751 373.403 192.467 373.616 192.467 373.876C192.467 374.136 192.11 374.349 191.673 374.349C191.237 374.349 190.789 374.563 190.679 374.823C190.568 375.083 190.194 375.296 189.847 375.296C189.5 375.296 189.216 375.51 189.216 375.77C189.216 376.03 188.859 376.243 188.422 376.243C187.986 376.243 187.538 376.457 187.428 376.717C187.317 376.977 186.943 377.19 186.596 377.19C186.249 377.19 185.965 377.403 185.965 377.664C185.965 377.924 185.608 378.137 185.171 378.137C184.735 378.137 184.287 378.35 184.177 378.611C184.066 378.871 183.692 379.084 183.345 379.084C182.997 379.084 182.714 379.297 182.714 379.558C182.714 379.818 182.357 380.031 181.92 380.031C181.483 380.031 181.036 380.244 180.926 380.505C180.815 380.765 180.441 380.978 180.094 380.978C179.746 380.978 179.463 381.191 179.463 381.452C179.463 381.712 179.097 381.925 178.65 381.925C178.203 381.925 177.837 382.138 177.837 382.399C177.837 382.659 177.48 382.872 177.043 382.872C176.607 382.872 176.159 383.085 176.049 383.346C175.938 383.606 175.564 383.819 175.217 383.819C174.87 383.819 174.586 383.994 174.586 384.207C174.586 384.42 173.854 384.885 172.96 385.239C172.066 385.594 171.335 386.02 171.335 386.186C171.335 386.352 170.603 386.779 169.709 387.133C168.815 387.488 168.084 387.906 168.084 388.062C168.084 388.219 167.388 388.638 166.539 388.993C165.69 389.348 164.849 389.792 164.67 389.98C164.491 390.169 163.54 390.756 162.557 391.286C159.388 392.993 158.496 393.52 158.33 393.782C158.241 393.923 157.509 394.34 156.705 394.709C155.9 395.078 155.168 395.504 155.079 395.656C154.99 395.808 154.258 396.234 153.453 396.603C152.649 396.971 151.917 397.391 151.828 397.534C151.738 397.677 150.861 398.19 149.877 398.673C148.894 399.157 147.494 399.954 146.767 400.445C146.04 400.936 145.208 401.338 144.917 401.338C144.626 401.338 144.31 401.523 144.214 401.749C144.117 401.976 143.121 402.642 142 403.23C140.879 403.818 139.366 404.698 138.639 405.185C137.912 405.673 137.08 406.072 136.789 406.072C136.498 406.072 136.183 406.254 136.089 406.477C135.995 406.7 134.998 407.358 133.875 407.94C132.752 408.522 131.238 409.406 130.512 409.903C129.785 410.4 129.044 410.807 128.866 410.807C128.688 410.807 127.936 411.233 127.196 411.754C126.456 412.275 125.632 412.701 125.366 412.701C125.1 412.701 124.791 412.914 124.681 413.174C124.57 413.435 124.123 413.648 123.686 413.648C123.25 413.648 122.893 413.861 122.893 414.121C122.893 414.382 122.6 414.595 122.243 414.595C121.885 414.595 121.592 414.808 121.592 415.068C121.592 415.329 121.153 415.542 120.617 415.542C120.081 415.542 119.642 415.755 119.642 416.015C119.642 416.275 119.349 416.489 118.991 416.489C118.634 416.489 118.341 416.702 118.341 416.962C118.341 417.222 117.902 417.435 117.366 417.435C116.829 417.435 116.391 417.648 116.391 417.909C116.391 418.169 116.098 418.383 115.74 418.383C115.383 418.383 115.09 418.557 115.09 418.77C115.09 418.984 114.359 419.448 113.465 419.803C112.57 420.157 111.839 420.622 111.839 420.836C111.839 421.049 111.482 421.223 111.045 421.223C110.609 421.223 110.161 421.436 110.051 421.697C109.94 421.957 109.566 422.17 109.219 422.17C108.872 422.17 108.588 422.383 108.588 422.644C108.588 422.904 108.231 423.117 107.794 423.117C107.358 423.117 106.91 423.33 106.8 423.591C106.689 423.851 106.315 424.064 105.968 424.064C105.621 424.064 105.337 424.277 105.337 424.538C105.337 424.798 104.98 425.011 104.543 425.011C104.106 425.011 103.659 425.224 103.549 425.484C103.438 425.745 103.064 425.958 102.717 425.958C102.369 425.958 102.086 426.171 102.086 426.431C102.086 426.692 101.72 426.905 101.273 426.905C100.826 426.905 100.46 427.118 100.46 427.378C100.46 427.639 100.103 427.852 99.6664 427.852C99.2298 427.852 98.7824 428.065 98.6719 428.325C98.5613 428.586 98.1871 428.799 97.8399 428.799C97.4927 428.799 97.2089 429.012 97.2089 429.272C97.2089 429.533 96.8519 429.746 96.4153 429.746C95.9786 429.746 95.5313 429.959 95.4207 430.219C95.3102 430.48 94.936 430.693 94.5888 430.693C94.2416 430.693 93.9577 430.906 93.9577 431.166C93.9577 431.427 93.6008 431.64 93.1641 431.64C92.7275 431.64 92.2801 431.853 92.1696 432.113C92.0591 432.374 91.6849 432.587 91.3376 432.587C90.9904 432.587 90.7066 432.761 90.7066 432.974C90.7066 433.188 89.9751 433.652 89.081 434.007C88.187 434.362 87.4555 434.788 87.4555 434.954C87.4555 435.12 86.724 435.546 85.8299 435.901C84.9358 436.255 84.2043 436.682 84.2043 436.848C84.2043 437.014 83.4728 437.44 82.5788 437.795C81.6847 438.149 80.9532 438.576 80.9532 438.742C80.9532 438.908 80.2217 439.334 79.3276 439.689C78.4336 440.043 77.7021 440.461 77.7021 440.618C77.7021 440.774 77.0073 441.197 76.1578 441.557C75.3086 441.916 74.5345 442.382 74.4382 442.592C74.342 442.801 73.7568 443.032 73.1378 443.106L72.0126 443.24L71.9306 338.925C71.8653 255.876 71.9316 234.489 72.2558 234.018C72.4794 233.693 73.3579 233.129 74.2071 232.764C75.0566 232.4 75.7514 231.935 75.7514 231.731C75.7514 231.528 76.0352 231.361 76.3824 231.361C76.7297 231.361 77.1038 231.148 77.2144 230.888C77.3249 230.627 77.7723 230.414 78.2089 230.414C78.6455 230.414 79.0025 230.201 79.0025 229.94C79.0025 229.68 79.2863 229.467 79.6336 229.467C79.9808 229.467 80.355 229.254 80.4655 228.993C80.5761 228.733 81.0234 228.52 81.46 228.52C81.8967 228.52 82.2536 228.307 82.2536 228.047C82.2536 227.786 82.5375 227.573 82.8847 227.573C83.2319 227.573 83.6061 227.36 83.7167 227.1C83.8272 226.839 84.2746 226.626 84.7112 226.626C85.1478 226.626 85.5048 226.413 85.5048 226.153C85.5048 225.892 85.7262 225.679 85.997 225.679C86.2675 225.679 86.7431 225.491 87.0536 225.261C87.3641 225.031 88.0205 224.605 88.5121 224.314C89.0036 224.024 89.8086 223.547 90.3002 223.256C90.7918 222.966 91.4482 222.54 91.7587 222.31C92.0691 222.08 92.5448 221.891 92.8153 221.891C93.0861 221.891 93.3075 221.678 93.3075 221.418C93.3075 221.158 93.5341 220.945 93.8108 220.945C94.0878 220.945 94.9197 220.518 95.66 219.998C96.4003 219.477 97.1263 219.051 97.2736 219.051C97.4205 219.051 98.1611 218.649 98.9193 218.158C99.6771 217.667 101.175 216.782 102.248 216.19C103.321 215.599 104.338 214.935 104.508 214.715C104.677 214.496 105.027 214.316 105.285 214.316C105.542 214.316 106.354 213.909 107.089 213.412C109.617 211.702 110.8 211.002 111.158 211.002C111.355 211.002 112.062 210.575 112.729 210.055C113.397 209.534 114.13 209.108 114.358 209.108C114.587 209.108 115.028 208.898 115.338 208.642C116.795 207.439 122.16 204.375 122.812 204.374C123.214 204.373 123.543 204.186 123.543 203.957C123.543 203.728 124.018 203.281 124.6 202.962C126.196 202.088 126.815 201.718 128.497 200.633C129.345 200.086 130.332 199.638 130.692 199.638C131.052 199.638 131.346 199.425 131.346 199.165C131.346 198.904 131.567 198.691 131.838 198.691C132.108 198.691 132.584 198.503 132.895 198.273C133.205 198.043 133.898 197.592 134.434 197.271C134.971 196.95 135.664 196.499 135.974 196.269C136.285 196.039 136.76 195.85 137.031 195.85C137.301 195.85 137.523 195.637 137.523 195.377C137.523 195.117 137.88 194.904 138.316 194.904C138.753 194.904 139.201 194.691 139.311 194.43C139.422 194.17 139.796 193.957 140.143 193.957C140.49 193.957 140.774 193.744 140.774 193.483C140.774 193.223 141.131 193.01 141.568 193.01C142.004 193.01 142.452 192.797 142.562 192.536C142.673 192.276 143.047 192.063 143.394 192.063C143.741 192.063 144.025 191.85 144.025 191.589C144.025 191.329 144.309 191.116 144.656 191.116C145.003 191.116 145.378 190.903 145.488 190.642C145.599 190.382 146.046 190.169 146.483 190.169C146.919 190.169 147.276 189.956 147.276 189.695C147.276 189.435 147.56 189.222 147.907 189.222C148.255 189.222 148.629 189.009 148.739 188.748C148.85 188.488 149.297 188.275 149.734 188.275C150.17 188.275 150.527 188.062 150.527 187.802C150.527 187.541 150.82 187.328 151.178 187.328C151.535 187.328 151.828 187.115 151.828 186.854C151.828 186.594 152.267 186.381 152.803 186.381C153.34 186.381 153.779 186.168 153.779 185.908C153.779 185.647 154.071 185.434 154.429 185.434C154.786 185.434 155.079 185.221 155.079 184.961C155.079 184.7 155.436 184.487 155.873 184.487C156.309 184.487 156.757 184.274 156.867 184.014C156.978 183.753 157.352 183.54 157.699 183.54C158.046 183.54 158.33 183.327 158.33 183.067C158.33 182.806 158.687 182.593 159.124 182.593C159.56 182.593 160.008 182.38 160.118 182.12C160.229 181.859 160.603 181.646 160.95 181.646C161.297 181.646 161.581 181.433 161.581 181.173C161.581 180.912 161.938 180.699 162.375 180.699C162.812 180.699 163.259 180.486 163.369 180.226C163.48 179.965 163.854 179.752 164.201 179.752C164.549 179.752 164.832 179.539 164.832 179.279C164.832 179.019 165.116 178.805 165.463 178.805C165.811 178.805 166.185 178.592 166.295 178.332C166.406 178.072 166.853 177.858 167.29 177.858C167.727 177.858 168.084 177.645 168.084 177.385C168.084 177.125 168.305 176.912 168.576 176.912C168.846 176.912 169.322 176.724 169.632 176.493C170.16 176.102 170.809 175.703 172.798 174.544C173.245 174.284 173.976 173.858 174.423 173.597C174.87 173.337 175.565 172.932 175.968 172.698C176.37 172.463 177.393 171.824 178.24 171.277C179.087 170.73 180.002 170.283 180.272 170.283C180.542 170.283 180.763 170.07 180.763 169.809C180.763 169.549 180.984 169.336 181.254 169.336C181.524 169.336 182.439 168.889 183.286 168.342C184.133 167.795 185.119 167.185 185.477 166.985C186.414 166.462 187.581 165.755 188.94 164.886C189.593 164.469 190.222 164.128 190.34 164.128C190.457 164.128 191.176 163.714 191.938 163.208C192.701 162.702 193.973 161.934 194.765 161.501C195.558 161.069 196.864 160.355 197.669 159.915C198.474 159.475 199.424 158.892 199.782 158.619C200.14 158.347 201.895 157.318 203.683 156.333C206.566 154.744 208.636 153.48 210.425 152.216C210.736 151.997 211.222 151.818 211.505 151.818C211.789 151.818 212.24 151.498 212.508 151.107C212.776 150.717 213.57 150.264 214.273 150.1C214.975 149.936 215.55 149.617 215.55 149.39C215.55 149.162 215.742 148.977 215.977 148.977C216.211 148.977 217.009 148.551 217.749 148.03C218.489 147.509 219.221 147.083 219.375 147.083C219.528 147.083 220.26 146.657 221 146.136C221.741 145.615 222.573 145.189 222.85 145.189C223.126 145.189 223.353 145.014 223.353 144.801C223.353 144.588 224.084 144.123 224.978 143.768C225.872 143.414 226.604 142.949 226.604 142.736C226.604 142.523 227.043 142.348 227.579 142.348C228.116 142.348 228.556 142.188 228.557 141.993C228.561 141.464 230.201 140.454 231.058 140.454C231.469 140.454 231.806 140.241 231.806 139.981C231.806 139.72 232.098 139.507 232.456 139.507C232.814 139.507 233.106 139.294 233.106 139.034C233.106 138.773 233.39 138.56 233.737 138.56C234.084 138.56 234.459 138.347 234.569 138.087C234.68 137.826 235.127 137.613 235.564 137.613C236 137.613 236.357 137.4 236.357 137.14C236.357 136.879 236.65 136.666 237.008 136.666C237.365 136.666 237.658 136.453 237.658 136.193C237.658 135.932 238.097 135.719 238.633 135.719C239.17 135.719 239.608 135.506 239.608 135.246C239.608 134.986 239.901 134.773 240.259 134.773C240.616 134.773 240.909 134.559 240.909 134.299C240.909 134.039 241.266 133.826 241.703 133.826C242.139 133.826 242.586 133.613 242.697 133.352C242.808 133.092 243.182 132.879 243.529 132.879C243.876 132.879 244.16 132.666 244.16 132.405C244.16 132.145 244.444 131.932 244.791 131.932C245.138 131.932 245.513 131.719 245.623 131.458C245.734 131.198 246.181 130.985 246.618 130.985C247.054 130.985 247.411 130.772 247.411 130.511C247.411 130.251 247.777 130.038 248.224 130.038C248.671 130.038 249.037 129.825 249.037 129.564C249.037 129.304 249.321 129.091 249.668 129.091C250.015 129.091 250.389 128.878 250.5 128.617C250.61 128.357 251.058 128.144 251.494 128.144C251.931 128.144 252.288 127.931 252.288 127.671C252.288 127.41 252.58 127.197 252.938 127.197C253.296 127.197 253.588 126.984 253.588 126.724C253.588 126.463 253.945 126.25 254.382 126.25C254.819 126.25 255.266 126.037 255.376 125.776C255.487 125.516 255.861 125.303 256.208 125.303C256.556 125.303 256.839 125.128 256.839 124.915C256.839 124.702 257.571 124.237 258.465 123.883C259.359 123.528 260.091 123.102 260.091 122.936C260.091 122.769 260.822 122.343 261.716 121.989C262.61 121.634 263.342 121.17 263.342 120.956C263.342 120.743 263.626 120.568 263.973 120.568C264.32 120.568 264.694 120.355 264.805 120.095C264.915 119.834 265.363 119.621 265.799 119.621C266.236 119.621 266.593 119.408 266.593 119.148C266.593 118.887 266.814 118.674 267.085 118.674C267.356 118.674 267.868 118.461 268.223 118.201C268.578 117.941 269.159 117.514 269.514 117.254C269.87 116.994 270.31 116.781 270.493 116.781C270.677 116.781 271.52 116.333 272.367 115.786C273.214 115.24 274.237 114.601 274.639 114.366C275.042 114.131 275.7 113.748 276.102 113.514C276.505 113.279 277.527 112.64 278.375 112.093C279.222 111.546 280.128 111.099 280.387 111.099C280.647 111.099 280.94 110.91 281.038 110.678C281.136 110.446 281.598 110.118 282.063 109.948C282.528 109.777 283.649 109.118 284.554 108.482C285.459 107.847 286.683 107.195 287.276 107.033C287.868 106.871 288.522 106.441 288.729 106.078C288.936 105.715 289.267 105.417 289.465 105.417C289.881 105.417 295.335 102.316 300.567 99.1048C301.64 98.4462 302.955 97.7503 303.49 97.558C304.025 97.3658 304.657 96.925 304.894 96.5789C305.132 96.2323 305.719 95.8275 306.198 95.6784C306.677 95.5297 307.581 95.0359 308.207 94.5814C308.833 94.1268 310.04 93.4559 310.89 93.0909C311.739 92.7253 312.434 92.2604 312.434 92.0568C312.434 91.8532 312.718 91.6865 313.065 91.6865C313.412 91.6865 313.786 91.4734 313.897 91.213C314.007 90.9526 314.455 90.7396 314.891 90.7396C315.328 90.7396 315.685 90.5264 315.685 90.266C315.685 90.0056 315.906 89.7927 316.177 89.7927C316.621 89.7927 316.946 89.5961 318.611 88.3262C318.879 88.1217 319.501 87.9418 319.993 87.9267L320.887 87.8987V193.403ZM1286.73 113.561C1287.03 113.989 1287.12 120.575 1287.12 140.296C1287.12 165.681 1287.1 166.477 1286.49 166.952C1285.82 167.479 1265.8 167.667 1264.88 167.155C1264.42 166.897 1264.37 164.081 1264.37 140.206C1264.37 119.32 1264.45 113.493 1264.77 113.306C1265 113.175 1269.94 113.051 1275.76 113.03C1283.59 113.003 1286.44 113.14 1286.73 113.561ZM711.516 115.005C711.615 115.591 711.654 119.692 711.603 124.119L711.51 132.168L683.307 132.29L655.103 132.41V123.491C655.103 118.585 655.201 114.429 655.32 114.255C655.439 114.082 668.091 113.94 683.436 113.94H711.335L711.516 115.005ZM929.343 131.443C929.236 131.694 929.246 132.973 929.366 134.283L929.583 136.666H959.939H990.295V133.826V130.985H959.916C940.7 130.985 929.466 131.153 929.343 131.443ZM67.4623 253.259C67.4623 253.259 67.5989 297.789 67.5498 350.913L67.461 447.501L35.9621 447.622C6.2542 447.735 4.43845 447.695 4.03011 446.911C3.67281 446.226 3.5951 429.237 3.58665 349.781C3.57689 258.613 3.60648 253.448 4.14519 252.853C4.60881 252.34 10.5005 252.221 36.0001 252.209L67.2861 252.194L67.4623 253.259Z" fill="black"/>
</svg>
